{
  "accessors": [
    {
      "bufferView": 2,
      "componentType": 5126,
      "count": 552,
      "max": [
        0.4033929705619812,
        0.4038916230201721,
        0.4032503068447113
      ],
      "min": [
        -0.40320247411727905,
        -0.4038914740085602,
        -0.40325069427490234
      ],
      "type": "VEC3"
    },
    {
      "bufferView": 2,
      "byteOffset": 6624,
      "componentType": 5126,
      "count": 552,
      "max": [
        0.9807854890823364,
        0.9967038631439209,
        0.980675458908081
      ],
      "min": [
        -0.9807853698730469,
        -0.9967032670974731,
        -0.9806753993034363
      ],
      "type": "VEC3"
    },
    {
      "bufferView": 1,
      "componentType": 5126,
      "count": 552,
      "max": [
        0.49649831652641296,
        0.9916912913322449
      ],
      "min": [
        0.25350600481033325,
        0.5
      ],
      "type": "VEC2"
    },
    {
      "bufferView": 0,
      "componentType": 5125,
      "count": 1488,
      "type": "SCALAR"
    },
    {
      "bufferView": 2,
      "byteOffset": 13248,
      "componentType": 5126,
      "count": 1196,
      "max": [
        0.4033929705619812,
        0.4038916230201721,
        0.4032503068447113
      ],
      "min": [
        -0.40320247411727905,
        -0.4038914740085602,
        -0.40325069427490234
      ],
      "type": "VEC3"
    },
    {
      "bufferView": 2,
      "byteOffset": 27600,
      "componentType": 5126,
      "count": 1196,
      "max": [
        1.0,
        0.9993556141853333,
        0.999996542930603
      ],
      "min": [
        -1.0,
        -0.9993555545806885,
        -0.999996542930603
      ],
      "type": "VEC3"
    },
    {
      "bufferView": 1,
      "byteOffset": 4416,
      "componentType": 5126,
      "count": 1196,
      "max": [
        0.49649831652641296,
        1.008113145828247
      ],
      "min": [
        0.25350600481033325,
        0.5
      ],
      "type": "VEC2"
    },
    {
      "bufferView": 0,
      "byteOffset": 5952,
      "componentType": 5125,
      "count": 2196,
      "type": "SCALAR"
    }
  ],
  "asset": {
    "extras": {
      "author": "ApprenticeRaccoon (https://sketchfab.com/ApprenticeRaccoon)",
      "license": "CC-BY-4.0 (http://creativecommons.org/licenses/by/4.0/)",
      "source": "https://sketchfab.com/3d-models/basketball-c0a989dd2bc34557acf42570948fb146",
      "title": "Basketball"
    },
    "generator": "Sketchfab-15.30.0",
    "version": "2.0"
  },
  "bufferViews": [
    {
      "buffer": 0,
      "byteLength": 14736,
      "name": "floatBufferViews",
      "target": 34963
    },
    {
      "buffer": 0,
      "byteLength": 13984,
      "byteOffset": 14736,
      "byteStride": 8,
      "name": "floatBufferViews",
      "target": 34962
    },
    {
      "buffer": 0,
      "byteLength": 41952,
      "byteOffset": 28720,
      "byteStride": 12,
      "name": "floatBufferViews",
      "target": 34962
    }
  ],
  "buffers": [
    {
      "byteLength": 70672,
      "uri": "scene.bin"
    }
  ],
  "materials": [
    {
      "doubleSided": true,
      "name": "C_Orange",
      "pbrMetallicRoughness": {
        "baseColorFactor": [
          0.8,
          0.16477,
          0.0315345,
          1.0
        ],
        "metallicFactor": 0.0,
        "roughnessFactor": 0.40685838280649994
      }
    },
    {
      "doubleSided": true,
      "name": "C_Black",
      "pbrMetallicRoughness": {
        "baseColorFactor": [
          0.00364212,
          0.00364212,
          0.00364212,
          1.0
        ],
        "metallicFactor": 0.0,
        "roughnessFactor": 0.9991855972097788
      }
    }
  ],
  "meshes": [
    {
      "name": "Basketball_C_Orange_0",
      "primitives": [
        {
          "attributes": {
            "NORMAL": 1,
            "POSITION": 0,
            "TEXCOORD_0": 2
          },
          "indices": 3,
          "material": 0,
          "mode": 4
        }
      ]
    },
    {
      "name": "Basketball_C_Black_0",
      "primitives": [
        {
          "attributes": {
            "NORMAL": 5,
            "POSITION": 4,
            "TEXCOORD_0": 6
          },
          "indices": 7,
          "material": 1,
          "mode": 4
        }
      ]
    }
  ],
  "nodes": [
    {
      "children": [
        1
      ],
      "matrix": [
        1.0,
        0.0,
        0.0,
        0.0,
        0.0,
        2.220446049250313e-16,
        -1.0,
        0.0,
        0.0,
        1.0,
        2.220446049250313e-16,
        0.0,
        0.0,
        0.0,
        0.0,
        1.0
      ],
      "name": "Sketchfab_model"
    },
    {
      "children": [
        2
      ],
      "matrix": [
        0.009999999776482582,
        0.0,
        0.0,
        0.0,
        0.0,
        0.0,
        0.009999999776482582,
        0.0,
        0.0,
        -0.009999999776482582,
        0.0,
        0.0,
        0.0,
        0.0,
        0.0,
        1.0
      ],
      "name": "Basketball_fbx.fbx"
    },
    {
      "children": [
        3
      ],
      "name": "RootNode"
    },
    {
      "children": [
        4,
        5
      ],
      "matrix": [
        100.0,
        0.0,
        0.0,
        0.0,
        -0.0,
        -1.629206793918314e-05,
        -99.99999999999868,
        0.0,
        0.0,
        99.99999999999868,
        -1.629206793918314e-05,
        0.0,
        -0.00010066992399515584,
        -0.0003016783739440143,
        0.00023741227050777525,
        1.0
      ],
      "name": "Basketball"
    },
    {
      "mesh": 0,
      "name": "Basketball_C_Orange_0"
    },
    {
      "mesh": 1,
      "name": "Basketball_C_Black_0"
    }
  ],
  "scene": 0,
  "scenes": [
    {
      "name": "Sketchfab_Scene",
      "nodes": [
        0
      ]
    }
  ]
}
