{
  "accessors": [
    {
      "bufferView": 2,
      "componentType": 5126,
      "count": 1383,
      "max": [
        1.0186376571655273,
        0.9999997019767761,
        4.06002950668335
      ],
      "min": [
        -1.0000001192092896,
        -1.000000238418579,
        2.9802322387695313e-08
      ],
      "type": "VEC3"
    },
    {
      "bufferView": 2,
      "byteOffset": 16596,
      "componentType": 5126,
      "count": 1383,
      "max": [
        1.0,
        1.0,
        1.0
      ],
      "min": [
        -1.0,
        -1.0,
        -1.0
      ],
      "type": "VEC3"
    },
    {
      "bufferView": 1,
      "componentType": 5126,
      "count": 1383,
      "max": [
        0.9997912049293518,
        0.7630375623703003
      ],
      "min": [
        0.00020891732128802687,
        0.00020891732128802687
      ],
      "type": "VEC2"
    },
    {
      "bufferView": 0,
      "componentType": 5125,
      "count": 5313,
      "type": "SCALAR"
    },
    {
      "bufferView": 2,
      "byteOffset": 33192,
      "componentType": 5126,
      "count": 25202,
      "max": [
        1.9665385484695435,
        1.802902102470398,
        -0.017762184143066406
      ],
      "min": [
        -0.002901792526245117,
        -0.16653656959533691,
        -0.20473167300224304
      ],
      "type": "VEC3"
    },
    {
      "bufferView": 2,
      "byteOffset": 335616,
      "componentType": 5126,
      "count": 25202,
      "max": [
        1.0,
        1.0,
        1.0
      ],
      "min": [
        -1.0,
        -1.0,
        -2.872848381230142e-05
      ],
      "type": "VEC3"
    },
    {
      "bufferView": 1,
      "byteOffset": 11064,
      "componentType": 5126,
      "count": 25202,
      "max": [
        0.9961236119270325,
        0.9991565346717834
      ],
      "min": [
        0.0008434871560893953,
        0.0008434871560893953
      ],
      "type": "VEC2"
    },
    {
      "bufferView": 0,
      "byteOffset": 21252,
      "componentType": 5125,
      "count": 107136,
      "type": "SCALAR"
    },
    {
      "bufferView": 2,
      "byteOffset": 638040,
      "componentType": 5126,
      "count": 296,
      "max": [
        0.4343481659889221,
        0.43434810638427734,
        3.819385290145874
      ],
      "min": [
        -0.4343477487564087,
        -0.43434804677963257,
        3.625445604324341
      ],
      "type": "VEC3"
    },
    {
      "bufferView": 2,
      "byteOffset": 641592,
      "componentType": 5126,
      "count": 296,
      "max": [
        0.9765246510505676,
        0.9765248894691467,
        1.0
      ],
      "min": [
        -0.9765244126319885,
        -0.976524293422699,
        0.21540407836437225
      ],
      "type": "VEC3"
    },
    {
      "bufferView": 1,
      "byteOffset": 212680,
      "componentType": 5126,
      "count": 296,
      "max": [
        0.9534708261489868,
        0.948346734046936
      ],
      "min": [
        0.6652138233184814,
        0.8042182922363281
      ],
      "type": "VEC2"
    },
    {
      "bufferView": 0,
      "byteOffset": 449796,
      "componentType": 5125,
      "count": 1440,
      "type": "SCALAR"
    },
    {
      "bufferView": 2,
      "byteOffset": 645144,
      "componentType": 5126,
      "count": 1134,
      "max": [
        0.0849604457616806,
        0.0692349299788475,
        0.0
      ],
      "min": [
        -0.0849604457616806,
        -0.10179832577705383,
        -0.003999998793005943
      ],
      "type": "VEC3"
    },
    {
      "bufferView": 2,
      "byteOffset": 658752,
      "componentType": 5126,
      "count": 1134,
      "max": [
        0.9999664425849915,
        1.0,
        1.0
      ],
      "min": [
        -0.9999664425849915,
        -1.0,
        -1.0
      ],
      "type": "VEC3"
    },
    {
      "bufferView": 1,
      "byteOffset": 215048,
      "componentType": 5126,
      "count": 1134,
      "max": [
        0.9998511075973511,
        0.8996716141700745
      ],
      "min": [
        0.0001489597634645179,
        0.0001489597634645179
      ],
      "type": "VEC2"
    },
    {
      "bufferView": 0,
      "byteOffset": 455556,
      "componentType": 5125,
      "count": 3522,
      "type": "SCALAR"
    }
  ],
  "asset": {
    "extras": {
      "author": "Abdurhman Aljakthami (https://sketchfab.com/penpcm)",
      "license": "CC-BY-4.0 (http://creativecommons.org/licenses/by/4.0/)",
      "source": "https://sketchfab.com/3d-models/xbox-series-x-29460c063c7b4046aea8be633f90210e",
      "title": "XBOX SERIES X"
    },
    "generator": "Sketchfab-12.68.0",
    "version": "2.0"
  },
  "bufferViews": [
    {
      "buffer": 0,
      "byteLength": 469644,
      "name": "floatBufferViews",
      "target": 34963
    },
    {
      "buffer": 0,
      "byteLength": 224120,
      "byteOffset": 469644,
      "byteStride": 8,
      "name": "floatBufferViews",
      "target": 34962
    },
    {
      "buffer": 0,
      "byteLength": 672360,
      "byteOffset": 693764,
      "byteStride": 12,
      "name": "floatBufferViews",
      "target": 34962
    }
  ],
  "buffers": [
    {
      "byteLength": 1366124,
      "uri": "scene.bin"
    }
  ],
  "materials": [
    {
      "doubleSided": true,
      "name": "BOX_VENT",
      "pbrMetallicRoughness": {
        "baseColorFactor": [
          0.0,
          0.0,
          0.0,
          1.0
        ],
        "metallicFactor": 0.7761051829268293,
        "roughnessFactor": 0.8187881097560976
      }
    },
    {
      "doubleSided": true,
      "emissiveFactor": [
        0.011668400661722596,
        1.0,
        0.049979184259401684
      ],
      "name": "GLOW_GREEN",
      "pbrMetallicRoughness": {
        "baseColorFactor": [
          0.0,
          0.0,
          0.0,
          1.0
        ],
        "metallicFactor": 0.0,
        "roughnessFactor": 0.8040408205773457
      }
    },
    {
      "doubleSided": true,
      "emissiveFactor": [
        1.0,
        1.0,
        1.0
      ],
      "name": "LOGOX",
      "pbrMetallicRoughness": {
        "baseColorFactor": [
          0.8,
          0.8,
          0.8,
          1.0
        ],
        "metallicFactor": 0.0,
        "roughnessFactor": 0.8040408205773457
      }
    }
  ],
  "meshes": [
    {
      "name": "BOX_BOX_VENT_0",
      "primitives": [
        {
          "attributes": {
            "NORMAL": 1,
            "POSITION": 0,
            "TEXCOORD_0": 2
          },
          "indices": 3,
          "material": 0,
          "mode": 4
        }
      ]
    },
    {
      "name": "VENT_BOX_VENT_0",
      "primitives": [
        {
          "attributes": {
            "NORMAL": 5,
            "POSITION": 4,
            "TEXCOORD_0": 6
          },
          "indices": 7,
          "material": 0,
          "mode": 4
        }
      ]
    },
    {
      "name": "GLOW_GLOW_GREEN_0",
      "primitives": [
        {
          "attributes": {
            "NORMAL": 9,
            "POSITION": 8,
            "TEXCOORD_0": 10
          },
          "indices": 11,
          "material": 1,
          "mode": 4
        }
      ]
    },
    {
      "name": "LOGOX_LOGOX_0",
      "primitives": [
        {
          "attributes": {
            "NORMAL": 13,
            "POSITION": 12,
            "TEXCOORD_0": 14
          },
          "indices": 15,
          "material": 2,
          "mode": 4
        }
      ]
    }
  ],
  "nodes": [
    {
      "children": [
        1
      ],
      "matrix": [
        0.0009991137776523829,
        0.0,
        0.0,
        0.0,
        0.0,
        2.2184782403397892e-19,
        -0.0009991137776523829,
        0.0,
        0.0,
        0.0009991137776523829,
        2.2184782403397892e-19,
        0.0,
        0.0,
        0.0,
        0.0,
        1.0
      ],
      "name": "Sketchfab_model"
    },
    {
      "children": [
        2
      ],
      "matrix": [
        1.0,
        0.0,
        0.0,
        0.0,
        0.0,
        0.0,
        1.0,
        0.0,
        0.0,
        -1.0,
        0.0,
        0.0,
        0.0,
        0.0,
        0.0,
        1.0
      ],
      "name": "575294af912f4a7b900d356f7a6536a9.fbx"
    },
    {
      "children": [
        3,
        7,
        9
      ],
      "name": "RootNode"
    },
    {
      "children": [
        4,
        5
      ],
      "matrix": [
        100.0,
        0.0,
        0.0,
        0.0,
        0.0,
        -1.629206793918314e-05,
        -99.99999999999868,
        0.0,
        0.0,
        99.99999999999868,
        -1.629206793918314e-05,
        0.0,
        0.0,
        0.0,
        0.0,
        1.0
      ],
      "name": "BOX"
    },
    {
      "mesh": 0,
      "name": "BOX_BOX_VENT_0"
    },
    {
      "children": [
        6
      ],
      "matrix": [
        -1.6292067939183141e-07,
        -0.9999999999999868,
        0.0,
        0.0,
        0.9999999999999868,
        -1.6292067939183141e-07,
        3.1554436208840472e-30,
        0.0,
        -3.1554436208840055e-30,
        5.140870184970495e-37,
        1.0,
        0.0,
        -0.8181828260421753,
        0.9818174242973328,
        4.077791690826416,
        1.0
      ],
      "name": "VENT"
    },
    {
      "mesh": 1,
      "name": "VENT_BOX_VENT_0"
    },
    {
      "children": [
        8
      ],
      "matrix": [
        100.0,
        0.0,
        0.0,
        0.0,
        0.0,
        -1.629206793918314e-05,
        -99.99999999999868,
        0.0,
        0.0,
        99.99999999999868,
        -1.629206793918314e-05,
        0.0,
        0.0,
        0.0,
        0.0,
        1.0
      ],
      "name": "GLOW"
    },
    {
      "mesh": 2,
      "name": "GLOW_GLOW_GREEN_0"
    },
    {
      "children": [
        10
      ],
      "matrix": [
        1.9470718881642313e-05,
        -9.926167350636332e-22,
        -99.9999999999981,
        0.0,
        4.371139539216444e-06,
        99.9999999999999,
        8.51092291111779e-13,
        0.0,
        99.99999999999801,
        -4.371139539216527e-06,
        1.9470718881642313e-05,
        0.0,
        100.25125885009766,
        370.54095458984375,
        73.15181732177734,
        1.0
      ],
      "name": "LOGOX"
    },
    {
      "mesh": 3,
      "name": "LOGOX_LOGOX_0"
    }
  ],
  "scene": 0,
  "scenes": [
    {
      "name": "Sketchfab_Scene",
      "nodes": [
        0
      ]
    }
  ]
}
