{
  "accessors": [
    {
      "bufferView": 2,
      "componentType": 5126,
      "count": 600,
      "max": [
        1.8666784763336182,
        0.404833048582077,
        1.8666787147521973
      ],
      "min": [
        -1.8666785955429077,
        -0.404833048582077,
        -1.8666785955429077
      ],
      "type": "VEC3"
    },
    {
      "bufferView": 2,
      "byteOffset": 7200,
      "componentType": 5126,
      "count": 600,
      "max": [
        0.8346941471099854,
        0.9726583957672119,
        0.8346942067146301
      ],
      "min": [
        -0.8346941471099854,
        -0.9726583957672119,
        -0.8346940875053406
      ],
      "type": "VEC3"
    },
    {
      "bufferView": 1,
      "componentType": 5126,
      "count": 600,
      "max": [
        0.9996256232261658,
        0.9638914465904236
      ],
      "min": [
        0.00037439080188050866,
        0.00037439080188050866
      ],
      "type": "VEC2"
    },
    {
      "bufferView": 0,
      "componentType": 5125,
      "count": 1872,
      "type": "SCALAR"
    },
    {
      "bufferView": 2,
      "byteOffset": 14400,
      "componentType": 5126,
      "count": 600,
      "max": [
        1.8666784763336182,
        0.404833048582077,
        1.8666787147521973
      ],
      "min": [
        -1.8666785955429077,
        -0.404833048582077,
        -1.8666785955429077
      ],
      "type": "VEC3"
    },
    {
      "bufferView": 2,
      "byteOffset": 21600,
      "componentType": 5126,
      "count": 600,
      "max": [
        0.8346941471099854,
        0.9726583957672119,
        0.8346942067146301
      ],
      "min": [
        -0.8346941471099854,
        -0.9726583957672119,
        -0.8346940875053406
      ],
      "type": "VEC3"
    },
    {
      "bufferView": 1,
      "byteOffset": 4800,
      "componentType": 5126,
      "count": 600,
      "max": [
        0.9996256232261658,
        0.9638914465904236
      ],
      "min": [
        0.00037439080188050866,
        0.00037439080188050866
      ],
      "type": "VEC2"
    },
    {
      "bufferView": 0,
      "byteOffset": 7488,
      "componentType": 5125,
      "count": 1872,
      "type": "SCALAR"
    },
    {
      "bufferView": 2,
      "byteOffset": 28800,
      "componentType": 5126,
      "count": 600,
      "max": [
        1.8666784763336182,
        0.404833048582077,
        1.8666787147521973
      ],
      "min": [
        -1.8666785955429077,
        -0.404833048582077,
        -1.8666785955429077
      ],
      "type": "VEC3"
    },
    {
      "bufferView": 2,
      "byteOffset": 36000,
      "componentType": 5126,
      "count": 600,
      "max": [
        0.8346941471099854,
        0.9726583957672119,
        0.8346942067146301
      ],
      "min": [
        -0.8346941471099854,
        -0.9726583957672119,
        -0.8346940875053406
      ],
      "type": "VEC3"
    },
    {
      "bufferView": 1,
      "byteOffset": 9600,
      "componentType": 5126,
      "count": 600,
      "max": [
        0.9996256232261658,
        0.9638914465904236
      ],
      "min": [
        0.00037439080188050866,
        0.00037439080188050866
      ],
      "type": "VEC2"
    },
    {
      "bufferView": 0,
      "byteOffset": 14976,
      "componentType": 5125,
      "count": 1872,
      "type": "SCALAR"
    },
    {
      "bufferView": 2,
      "byteOffset": 43200,
      "componentType": 5126,
      "count": 600,
      "max": [
        1.8666784763336182,
        0.404833048582077,
        1.8666787147521973
      ],
      "min": [
        -1.8666785955429077,
        -0.404833048582077,
        -1.8666785955429077
      ],
      "type": "VEC3"
    },
    {
      "bufferView": 2,
      "byteOffset": 50400,
      "componentType": 5126,
      "count": 600,
      "max": [
        0.8346941471099854,
        0.9726583957672119,
        0.8346942067146301
      ],
      "min": [
        -0.8346941471099854,
        -0.9726583957672119,
        -0.8346940875053406
      ],
      "type": "VEC3"
    },
    {
      "bufferView": 1,
      "byteOffset": 14400,
      "componentType": 5126,
      "count": 600,
      "max": [
        0.9996256232261658,
        0.9638914465904236
      ],
      "min": [
        0.00037439080188050866,
        0.00037439080188050866
      ],
      "type": "VEC2"
    },
    {
      "bufferView": 0,
      "byteOffset": 22464,
      "componentType": 5125,
      "count": 1872,
      "type": "SCALAR"
    },
    {
      "bufferView": 2,
      "byteOffset": 57600,
      "componentType": 5126,
      "count": 600,
      "max": [
        1.8666784763336182,
        0.404833048582077,
        1.8666787147521973
      ],
      "min": [
        -1.8666785955429077,
        -0.404833048582077,
        -1.8666785955429077
      ],
      "type": "VEC3"
    },
    {
      "bufferView": 2,
      "byteOffset": 64800,
      "componentType": 5126,
      "count": 600,
      "max": [
        0.8346941471099854,
        0.9726583957672119,
        0.8346942067146301
      ],
      "min": [
        -0.8346941471099854,
        -0.9726583957672119,
        -0.8346940875053406
      ],
      "type": "VEC3"
    },
    {
      "bufferView": 1,
      "byteOffset": 19200,
      "componentType": 5126,
      "count": 600,
      "max": [
        0.9996256232261658,
        0.9638914465904236
      ],
      "min": [
        0.00037439080188050866,
        0.00037439080188050866
      ],
      "type": "VEC2"
    },
    {
      "bufferView": 0,
      "byteOffset": 29952,
      "componentType": 5125,
      "count": 1872,
      "type": "SCALAR"
    }
  ],
  "asset": {
    "extras": {
      "author": "delacruz277206 (https://sketchfab.com/delacruz277206)",
      "license": "CC-BY-4.0 (http://creativecommons.org/licenses/by/4.0/)",
      "source": "https://sketchfab.com/3d-models/gear-c3e6e5e9c59a4e4db696b26861eca0f9",
      "title": "Gear"
    },
    "generator": "Sketchfab-15.25.0",
    "version": "2.0"
  },
  "bufferViews": [
    {
      "buffer": 0,
      "byteLength": 37440,
      "name": "floatBufferViews",
      "target": 34963
    },
    {
      "buffer": 0,
      "byteLength": 24000,
      "byteOffset": 37440,
      "byteStride": 8,
      "name": "floatBufferViews",
      "target": 34962
    },
    {
      "buffer": 0,
      "byteLength": 72000,
      "byteOffset": 61440,
      "byteStride": 12,
      "name": "floatBufferViews",
      "target": 34962
    }
  ],
  "buffers": [
    {
      "byteLength": 133440,
      "uri": "scene.bin"
    }
  ],
  "materials": [
    {
      "doubleSided": true,
      "name": "Material.001"
    }
  ],
  "meshes": [
    {
      "name": "Object_0",
      "primitives": [
        {
          "attributes": {
            "NORMAL": 1,
            "POSITION": 0,
            "TEXCOORD_0": 2
          },
          "indices": 3,
          "material": 0,
          "mode": 4
        }
      ]
    },
    {
      "name": "Object_1",
      "primitives": [
        {
          "attributes": {
            "NORMAL": 5,
            "POSITION": 4,
            "TEXCOORD_0": 6
          },
          "indices": 7,
          "material": 0,
          "mode": 4
        }
      ]
    },
    {
      "name": "Object_2",
      "primitives": [
        {
          "attributes": {
            "NORMAL": 9,
            "POSITION": 8,
            "TEXCOORD_0": 10
          },
          "indices": 11,
          "material": 0,
          "mode": 4
        }
      ]
    },
    {
      "name": "Object_3",
      "primitives": [
        {
          "attributes": {
            "NORMAL": 13,
            "POSITION": 12,
            "TEXCOORD_0": 14
          },
          "indices": 15,
          "material": 0,
          "mode": 4
        }
      ]
    },
    {
      "name": "Object_4",
      "primitives": [
        {
          "attributes": {
            "NORMAL": 17,
            "POSITION": 16,
            "TEXCOORD_0": 18
          },
          "indices": 19,
          "material": 0,
          "mode": 4
        }
      ]
    }
  ],
  "nodes": [
    {
      "children": [
        1
      ],
      "matrix": [
        1.0,
        0.0,
        0.0,
        0.0,
        0.0,
        2.220446049250313e-16,
        -1.0,
        0.0,
        0.0,
        1.0,
        2.220446049250313e-16,
        0.0,
        0.0,
        0.0,
        0.0,
        1.0
      ],
      "name": "Sketchfab_model"
    },
    {
      "children": [
        2
      ],
      "name": "root"
    },
    {
      "children": [
        3,
        5,
        7,
        9,
        11
      ],
      "matrix": [
        1.0,
        0.0,
        0.0,
        0.0,
        0.0,
        2.220446049250313e-16,
        1.0,
        0.0,
        0.0,
        -1.0,
        2.220446049250313e-16,
        0.0,
        0.0,
        0.0,
        0.0,
        1.0
      ],
      "name": "GLTF_SceneRootNode"
    },
    {
      "children": [
        4
      ],
      "matrix": [
        0.9150591399457673,
        0.09315092734986777,
        -0.3924151820910759,
        0.0,
        -0.08309988238983246,
        0.9956318214908442,
        0.04256389998131896,
        0.0,
        0.39466590928088613,
        -0.0063388302298902945,
        0.9188028293833275,
        0.0,
        -0.06768138706684113,
        0.05777708813548088,
        -0.05299312621355057,
        1.0
      ],
      "name": "rueda 1_1"
    },
    {
      "mesh": 0,
      "name": "Object_4"
    },
    {
      "children": [
        6
      ],
      "matrix": [
        0.5148266249664291,
        0.0166295463337559,
        -0.12480774850772196,
        0.0,
        -0.01039029132567337,
        0.519229339269864,
        0.02632328344113999,
        0.0,
        0.12309734448473234,
        -0.023122903711116537,
        0.5046903558305312,
        0.0,
        -2.6007509231567383,
        0.11174439638853073,
        -3.7181591987609863,
        1.0
      ],
      "name": "rueda 2_2"
    },
    {
      "mesh": 1,
      "name": "Object_6"
    },
    {
      "children": [
        8
      ],
      "matrix": [
        0.5793346528372172,
        0.043154367434114334,
        -0.39052406315621846,
        0.0,
        -0.01969780094092771,
        0.6980800343839866,
        0.0479191563285843,
        0.0,
        0.392407109990087,
        -0.028669661255640355,
        0.5789600105908993,
        0.0,
        -0.7975950241088867,
        0.21238096058368683,
        -4.555484294891357,
        1.0
      ],
      "name": "rueda 3_3"
    },
    {
      "mesh": 2,
      "name": "Object_8"
    },
    {
      "children": [
        10
      ],
      "matrix": [
        0.6070665113695958,
        0.021355114433145285,
        -0.12415429788630032,
        0.0,
        -0.01581838489601582,
        0.579355107874457,
        0.022305976828096718,
        0.0,
        0.12483751816269155,
        -0.019960843135996886,
        0.6069738368519884,
        0.0,
        -2.069763422012329,
        0.03391767665743828,
        -1.8457419872283936,
        1.0
      ],
      "name": "rueda 3.001_4"
    },
    {
      "mesh": 3,
      "name": "Object_10"
    },
    {
      "children": [
        12
      ],
      "matrix": [
        0.7961311546785749,
        0.010864644313749778,
        0.07782839131716592,
        0.0,
        -0.01465209701763402,
        0.7989459931952456,
        0.038350103665720586,
        0.0,
        -0.0772050195522807,
        -0.03959007327754496,
        0.7952811612849469,
        0.0,
        0.9653499126434326,
        0.3272112011909485,
        -2.7372231483459473,
        1.0
      ],
      "name": "rueda 4_5"
    },
    {
      "mesh": 4,
      "name": "Object_12"
    }
  ],
  "scene": 0,
  "scenes": [
    {
      "name": "Sketchfab_Scene",
      "nodes": [
        0
      ]
    }
  ]
}
