{
  "accessors": [
    {
      "bufferView": 2,
      "componentType": 5126,
      "count": 1625,
      "max": [
        -1.0763779878616333,
        6.470306396484375,
        0.2628653943538666
      ],
      "min": [
        -5.33173942565918,
        2.2149453163146973,
        -0.34550970792770386
      ],
      "type": "VEC3"
    },
    {
      "bufferView": 2,
      "byteOffset": 19500,
      "componentType": 5126,
      "count": 1625,
      "max": [
        0.9992343783378601,
        0.9992343783378601,
        0.999991774559021
      ],
      "min": [
        -0.9992343187332153,
        -0.9992342591285706,
        -0.999991774559021
      ],
      "type": "VEC3"
    },
    {
      "bufferView": 1,
      "componentType": 5126,
      "count": 1625,
      "max": [
        1.0,
        1.0
      ],
      "min": [
        0.0,
        -4.440892098500626e-16
      ],
      "type": "VEC2"
    },
    {
      "bufferView": 0,
      "componentType": 5125,
      "count": 9216,
      "type": "SCALAR"
    },
    {
      "bufferView": 2,
      "byteOffset": 39000,
      "componentType": 5126,
      "count": 966,
      "max": [
        -1.6784725189208984,
        5.86239767074585,
        0.1725146770477295
      ],
      "min": [
        -4.723830223083496,
        2.378936767578125,
        -0.252218633890152
      ],
      "type": "VEC3"
    },
    {
      "bufferView": 2,
      "byteOffset": 50592,
      "componentType": 5126,
      "count": 966,
      "max": [
        0.8808707594871521,
        0.9998962879180908,
        1.0
      ],
      "min": [
        -0.9990909099578857,
        -0.9841067790985107,
        -0.9717366099357605
      ],
      "type": "VEC3"
    },
    {
      "bufferView": 1,
      "byteOffset": 13000,
      "componentType": 5126,
      "count": 966,
      "max": [
        0.40917474031448364,
        0.40917491912841797
      ],
      "min": [
        0.0,
        0.0
      ],
      "type": "VEC2"
    },
    {
      "bufferView": 0,
      "byteOffset": 36864,
      "componentType": 5125,
      "count": 5364,
      "type": "SCALAR"
    },
    {
      "bufferView": 2,
      "byteOffset": 62184,
      "componentType": 5126,
      "count": 2932,
      "max": [
        0.48986348509788513,
        2.5995230674743652,
        0.8081908822059631
      ],
      "min": [
        -2.1522064208984375,
        -0.3108590543270111,
        -0.8081914782524109
      ],
      "type": "VEC3"
    },
    {
      "bufferView": 2,
      "byteOffset": 97368,
      "componentType": 5126,
      "count": 2932,
      "max": [
        0.9996988773345947,
        0.99973464012146,
        0.9995436072349548
      ],
      "min": [
        -0.9996988773345947,
        -0.99973464012146,
        -0.9995436072349548
      ],
      "type": "VEC3"
    },
    {
      "bufferView": 1,
      "byteOffset": 20728,
      "componentType": 5126,
      "count": 2932,
      "max": [
        1.0,
        1.0
      ],
      "min": [
        0.0,
        0.05136158689856529
      ],
      "type": "VEC2"
    },
    {
      "bufferView": 0,
      "byteOffset": 58320,
      "componentType": 5125,
      "count": 10740,
      "type": "SCALAR"
    },
    {
      "bufferView": 2,
      "byteOffset": 132552,
      "componentType": 5126,
      "count": 2930,
      "max": [
        -1.3047510385513306,
        2.7246482372283936,
        0.40420442819595337
      ],
      "min": [
        -2.1632208824157715,
        1.9625630378723145,
        -0.48390814661979675
      ],
      "type": "VEC3"
    },
    {
      "bufferView": 2,
      "byteOffset": 167712,
      "componentType": 5126,
      "count": 2930,
      "max": [
        0.9996989965438843,
        0.99973464012146,
        0.9995436072349548
      ],
      "min": [
        -0.999699056148529,
        -0.9997345805168152,
        -0.9995436072349548
      ],
      "type": "VEC3"
    },
    {
      "bufferView": 1,
      "byteOffset": 44184,
      "componentType": 5126,
      "count": 2930,
      "max": [
        1.0,
        1.0
      ],
      "min": [
        0.0,
        0.038983266800642014
      ],
      "type": "VEC2"
    },
    {
      "bufferView": 0,
      "byteOffset": 101280,
      "componentType": 5125,
      "count": 10938,
      "type": "SCALAR"
    }
  ],
  "asset": {
    "extras": {
      "author": "Ahm3D-JimmyHapua (https://sketchfab.com/Ahm3D.Yuksel)",
      "license": "CC-BY-4.0 (http://creativecommons.org/licenses/by/4.0/)",
      "source": "https://sketchfab.com/3d-models/toon-magnifying-glassbuyuteclupaloupelupe-0aceb86bf7474702b29b9f5beea2341a",
      "title": "Toon Magnifying Glass/Büyüteç/Lupa/Loupe/Lupe"
    },
    "generator": "Sketchfab-13.52.1",
    "version": "2.0"
  },
  "bufferViews": [
    {
      "buffer": 0,
      "byteLength": 145032,
      "name": "floatBufferViews",
      "target": 34963
    },
    {
      "buffer": 0,
      "byteLength": 67624,
      "byteOffset": 145032,
      "byteStride": 8,
      "name": "floatBufferViews",
      "target": 34962
    },
    {
      "buffer": 0,
      "byteLength": 202872,
      "byteOffset": 212656,
      "byteStride": 12,
      "name": "floatBufferViews",
      "target": 34962
    }
  ],
  "buffers": [
    {
      "byteLength": 415528,
      "uri": "scene.bin"
    }
  ],
  "materials": [
    {
      "doubleSided": true,
      "name": "Material.004",
      "pbrMetallicRoughness": {
        "baseColorFactor": [
          0.0199001,
          0.0613172,
          0.8,
          1.0
        ],
        "metallicFactor": 0.0,
        "roughnessFactor": 0.9763323781376387
      }
    },
    {
      "doubleSided": true,
      "name": "Material.002",
      "pbrMetallicRoughness": {
        "baseColorFactor": [
          0.0489808,
          0.45781,
          0.8,
          1.0
        ],
        "metallicFactor": 0.0,
        "roughnessFactor": 0.9115413676908136
      }
    },
    {
      "doubleSided": true,
      "name": "Material.001",
      "pbrMetallicRoughness": {
        "baseColorFactor": [
          0.799103,
          0.350445,
          0.0126,
          1.0
        ],
        "metallicFactor": 0.0,
        "roughnessFactor": 0.9057637589642464
      }
    },
    {
      "doubleSided": true,
      "name": "Material.003",
      "pbrMetallicRoughness": {
        "baseColorFactor": [
          0.275262,
          0.03104,
          0.8,
          1.0
        ],
        "metallicFactor": 0.0,
        "roughnessFactor": 0.9690348167870015
      }
    }
  ],
  "meshes": [
    {
      "name": "magnifying glass_Material.004_0",
      "primitives": [
        {
          "attributes": {
            "NORMAL": 1,
            "POSITION": 0,
            "TEXCOORD_0": 2
          },
          "indices": 3,
          "material": 0,
          "mode": 4
        }
      ]
    },
    {
      "name": "magnifying glass_Material.002_0",
      "primitives": [
        {
          "attributes": {
            "NORMAL": 5,
            "POSITION": 4,
            "TEXCOORD_0": 6
          },
          "indices": 7,
          "material": 1,
          "mode": 4
        }
      ]
    },
    {
      "name": "magnifying glass_Material.001_0",
      "primitives": [
        {
          "attributes": {
            "NORMAL": 9,
            "POSITION": 8,
            "TEXCOORD_0": 10
          },
          "indices": 11,
          "material": 2,
          "mode": 4
        }
      ]
    },
    {
      "name": "magnifying glass_Material.003_0",
      "primitives": [
        {
          "attributes": {
            "NORMAL": 13,
            "POSITION": 12,
            "TEXCOORD_0": 14
          },
          "indices": 15,
          "material": 3,
          "mode": 4
        }
      ]
    }
  ],
  "nodes": [
    {
      "children": [
        1
      ],
      "matrix": [
        1.0,
        0.0,
        0.0,
        0.0,
        0.0,
        2.220446049250313e-16,
        -1.0,
        0.0,
        0.0,
        1.0,
        2.220446049250313e-16,
        0.0,
        0.0,
        0.0,
        0.0,
        1.0
      ],
      "name": "Sketchfab_model"
    },
    {
      "children": [
        2
      ],
      "matrix": [
        1.0,
        0.0,
        0.0,
        0.0,
        0.0,
        0.0,
        1.0,
        0.0,
        0.0,
        -1.0,
        0.0,
        0.0,
        0.0,
        0.0,
        0.0,
        1.0
      ],
      "name": "magnifying glass.fbx"
    },
    {
      "children": [
        3
      ],
      "name": "RootNode"
    },
    {
      "children": [
        4,
        5,
        6,
        7
      ],
      "matrix": [
        1.0,
        0.0,
        0.0,
        0.0,
        0.0,
        0.999999999999981,
        -1.9470718370939613e-07,
        0.0,
        0.0,
        1.9470718370939613e-07,
        0.999999999999981,
        0.0,
        -1.1175870895385742e-08,
        0.0,
        1.4901161193847656e-08,
        1.0
      ],
      "name": "magnifying glass"
    },
    {
      "mesh": 0,
      "name": "magnifying glass_Material.004_0"
    },
    {
      "mesh": 1,
      "name": "magnifying glass_Material.002_0"
    },
    {
      "mesh": 2,
      "name": "magnifying glass_Material.001_0"
    },
    {
      "mesh": 3,
      "name": "magnifying glass_Material.003_0"
    }
  ],
  "scene": 0,
  "scenes": [
    {
      "name": "Sketchfab_Scene",
      "nodes": [
        0
      ]
    }
  ]
}
