{
  "accessors": [
    {
      "bufferView": 2,
      "componentType": 5126,
      "count": 703,
      "max": [
        11.63265609741211,
        11.5738525390625,
        15.591170310974121
      ],
      "min": [
        -11.623926162719727,
        1.573866367340088,
        12.063555717468262
      ],
      "type": "VEC3"
    },
    {
      "bufferView": 2,
      "byteOffset": 8436,
      "componentType": 5126,
      "count": 703,
      "max": [
        0.9983911514282227,
        0.9999988675117493,
        1.0
      ],
      "min": [
        -0.9983910918235779,
        -0.9983911514282227,
        -1.0
      ],
      "type": "VEC3"
    },
    {
      "bufferView": 1,
      "componentType": 5126,
      "count": 703,
      "max": [
        0.65625,
        1.0
      ],
      "min": [
        0.3437499701976776,
        -7.450580596923828e-08
      ],
      "type": "VEC2"
    },
    {
      "bufferView": 0,
      "componentType": 5125,
      "count": 3228,
      "type": "SCALAR"
    },
    {
      "bufferView": 2,
      "byteOffset": 16872,
      "componentType": 5126,
      "count": 21,
      "max": [
        11.105491638183594,
        10.833807945251465,
        15.144403457641602
      ],
      "min": [
        2.0399341583251953,
        2.1010327339172363,
        15.144403457641602
      ],
      "type": "VEC3"
    },
    {
      "bufferView": 2,
      "byteOffset": 17124,
      "componentType": 5126,
      "count": 21,
      "max": [
        0.09146850556135178,
        0.09365054965019226,
        1.0
      ],
      "min": [
        -0.0936569944024086,
        -0.09533704817295074,
        0.9950568079948425
      ],
      "type": "VEC3"
    },
    {
      "bufferView": 1,
      "byteOffset": 5624,
      "componentType": 5126,
      "count": 21,
      "max": [
        0.65625,
        0.9874988198280334
      ],
      "min": [
        0.3569968044757843,
        0.7001603245735168
      ],
      "type": "VEC2"
    },
    {
      "bufferView": 0,
      "byteOffset": 12912,
      "componentType": 5125,
      "count": 60,
      "type": "SCALAR"
    },
    {
      "bufferView": 2,
      "byteOffset": 17376,
      "componentType": 5126,
      "count": 191,
      "max": [
        1.1564522981643677,
        8.61160945892334,
        15.591170310974121
      ],
      "min": [
        -8.7697114944458,
        4.460226058959961,
        14.732937812805176
      ],
      "type": "VEC3"
    },
    {
      "bufferView": 2,
      "byteOffset": 19668,
      "componentType": 5126,
      "count": 191,
      "max": [
        0.9967918395996094,
        0.9968684911727905,
        1.0
      ],
      "min": [
        -0.9969985485076904,
        -0.996543288230896,
        -0.3806331157684326
      ],
      "type": "VEC3"
    },
    {
      "bufferView": 1,
      "byteOffset": 5792,
      "componentType": 5126,
      "count": 191,
      "max": [
        0.6342557668685913,
        0.9711949229240417
      ],
      "min": [
        0.38447296619415283,
        0.6884398460388184
      ],
      "type": "VEC2"
    },
    {
      "bufferView": 0,
      "byteOffset": 13152,
      "componentType": 5125,
      "count": 918,
      "type": "SCALAR"
    },
    {
      "bufferView": 2,
      "byteOffset": 21960,
      "componentType": 5126,
      "count": 110,
      "max": [
        8.236977577209473,
        7.474721431732178,
        -3.780017852783203
      ],
      "min": [
        2.5813634395599365,
        5.380367755889893,
        -5.874371528625488
      ],
      "type": "VEC3"
    },
    {
      "bufferView": 2,
      "byteOffset": 23280,
      "componentType": 5126,
      "count": 110,
      "max": [
        1.0,
        1.0,
        1.0
      ],
      "min": [
        -1.0,
        -1.0,
        0.0
      ],
      "type": "VEC3"
    },
    {
      "bufferView": 1,
      "byteOffset": 7320,
      "componentType": 5126,
      "count": 110,
      "max": [
        0.65625,
        1.0
      ],
      "min": [
        0.34375,
        0.3125
      ],
      "type": "VEC2"
    },
    {
      "bufferView": 0,
      "byteOffset": 16824,
      "componentType": 5125,
      "count": 312,
      "type": "SCALAR"
    },
    {
      "bufferView": 2,
      "byteOffset": 24600,
      "componentType": 5126,
      "count": 110,
      "max": [
        8.236977577209473,
        7.474721431732178,
        -3.780017852783203
      ],
      "min": [
        2.5813634395599365,
        5.380367755889893,
        -5.874371528625488
      ],
      "type": "VEC3"
    },
    {
      "bufferView": 2,
      "byteOffset": 25920,
      "componentType": 5126,
      "count": 110,
      "max": [
        1.0,
        1.0,
        1.0
      ],
      "min": [
        -1.0,
        -1.0,
        0.0
      ],
      "type": "VEC3"
    },
    {
      "bufferView": 1,
      "byteOffset": 8200,
      "componentType": 5126,
      "count": 110,
      "max": [
        0.65625,
        1.0
      ],
      "min": [
        0.34375,
        0.3125
      ],
      "type": "VEC2"
    },
    {
      "bufferView": 0,
      "byteOffset": 18072,
      "componentType": 5125,
      "count": 312,
      "type": "SCALAR"
    },
    {
      "bufferView": 2,
      "byteOffset": 27240,
      "componentType": 5126,
      "count": 124,
      "max": [
        1.0000004768371582,
        1.7675471305847168,
        1.0000001192092896
      ],
      "min": [
        -1.0000004768371582,
        -1.0,
        -1.0000004768371582
      ],
      "type": "VEC3"
    },
    {
      "bufferView": 2,
      "byteOffset": 28728,
      "componentType": 5126,
      "count": 124,
      "max": [
        1.0,
        1.0,
        1.0
      ],
      "min": [
        -1.0,
        0.0,
        -1.0
      ],
      "type": "VEC3"
    },
    {
      "bufferView": 1,
      "byteOffset": 9080,
      "componentType": 5126,
      "count": 124,
      "max": [
        0.65625,
        1.0
      ],
      "min": [
        0.3437499701976776,
        0.3125
      ],
      "type": "VEC2"
    },
    {
      "bufferView": 0,
      "byteOffset": 19320,
      "componentType": 5125,
      "count": 540,
      "type": "SCALAR"
    },
    {
      "bufferView": 2,
      "byteOffset": 30216,
      "componentType": 5126,
      "count": 124,
      "max": [
        1.0000004768371582,
        1.7675471305847168,
        1.0000001192092896
      ],
      "min": [
        -1.0000004768371582,
        -1.0,
        -1.0000004768371582
      ],
      "type": "VEC3"
    },
    {
      "bufferView": 2,
      "byteOffset": 31704,
      "componentType": 5126,
      "count": 124,
      "max": [
        1.0,
        1.0,
        1.0
      ],
      "min": [
        -1.0,
        0.0,
        -1.0
      ],
      "type": "VEC3"
    },
    {
      "bufferView": 1,
      "byteOffset": 10072,
      "componentType": 5126,
      "count": 124,
      "max": [
        0.65625,
        1.0
      ],
      "min": [
        0.3437499701976776,
        0.3125
      ],
      "type": "VEC2"
    },
    {
      "bufferView": 0,
      "byteOffset": 21480,
      "componentType": 5125,
      "count": 540,
      "type": "SCALAR"
    },
    {
      "bufferView": 2,
      "byteOffset": 33192,
      "componentType": 5126,
      "count": 124,
      "max": [
        1.0000004768371582,
        1.7675471305847168,
        1.0000001192092896
      ],
      "min": [
        -1.0000004768371582,
        -1.0,
        -1.0000004768371582
      ],
      "type": "VEC3"
    },
    {
      "bufferView": 2,
      "byteOffset": 34680,
      "componentType": 5126,
      "count": 124,
      "max": [
        1.0,
        1.0,
        1.0
      ],
      "min": [
        -1.0,
        0.0,
        -1.0
      ],
      "type": "VEC3"
    },
    {
      "bufferView": 1,
      "byteOffset": 11064,
      "componentType": 5126,
      "count": 124,
      "max": [
        0.65625,
        1.0
      ],
      "min": [
        0.3437499701976776,
        0.3125
      ],
      "type": "VEC2"
    },
    {
      "bufferView": 0,
      "byteOffset": 23640,
      "componentType": 5125,
      "count": 540,
      "type": "SCALAR"
    },
    {
      "bufferView": 2,
      "byteOffset": 36168,
      "componentType": 5126,
      "count": 124,
      "max": [
        1.0000004768371582,
        1.7675471305847168,
        1.0000001192092896
      ],
      "min": [
        -1.0000004768371582,
        -1.0,
        -1.0000004768371582
      ],
      "type": "VEC3"
    },
    {
      "bufferView": 2,
      "byteOffset": 37656,
      "componentType": 5126,
      "count": 124,
      "max": [
        1.0,
        1.0,
        1.0
      ],
      "min": [
        -1.0,
        0.0,
        -1.0
      ],
      "type": "VEC3"
    },
    {
      "bufferView": 1,
      "byteOffset": 12056,
      "componentType": 5126,
      "count": 124,
      "max": [
        0.65625,
        1.0
      ],
      "min": [
        0.3437499701976776,
        0.3125
      ],
      "type": "VEC2"
    },
    {
      "bufferView": 0,
      "byteOffset": 25800,
      "componentType": 5125,
      "count": 540,
      "type": "SCALAR"
    }
  ],
  "asset": {
    "extras": {
      "author": "Jay Salton (https://sketchfab.com/jaysalton)",
      "license": "CC-BY-4.0 (http://creativecommons.org/licenses/by/4.0/)",
      "source": "https://sketchfab.com/3d-models/low-polly-controler-7fa1820d2c5c42c19ad05d814e950cf2",
      "title": "Low Polly Controler"
    },
    "generator": "Sketchfab-12.66.0",
    "version": "2.0"
  },
  "bufferViews": [
    {
      "buffer": 0,
      "byteLength": 27960,
      "name": "floatBufferViews",
      "target": 34963
    },
    {
      "buffer": 0,
      "byteLength": 13048,
      "byteOffset": 27960,
      "byteStride": 8,
      "name": "floatBufferViews",
      "target": 34962
    },
    {
      "buffer": 0,
      "byteLength": 39144,
      "byteOffset": 41008,
      "byteStride": 12,
      "name": "floatBufferViews",
      "target": 34962
    }
  ],
  "buffers": [
    {
      "byteLength": 80152,
      "uri": "scene.bin"
    }
  ],
  "materials": [
    {
      "doubleSided": true,
      "name": "blinn1",
      "pbrMetallicRoughness": {
        "baseColorFactor": [
          0.876,
          0.876,
          0.876,
          1.0
        ],
        "metallicFactor": 0.0,
        "roughnessFactor": 0.6
      }
    },
    {
      "doubleSided": true,
      "name": "blinn3",
      "pbrMetallicRoughness": {
        "baseColorFactor": [
          0.5,
          0.5,
          0.5,
          1.0
        ],
        "metallicFactor": 0.0,
        "roughnessFactor": 0.6
      }
    },
    {
      "doubleSided": true,
      "name": "blinn2",
      "pbrMetallicRoughness": {
        "baseColorFactor": [
          0.254,
          0.254,
          0.254,
          1.0
        ],
        "metallicFactor": 0.0,
        "roughnessFactor": 0.6
      }
    },
    {
      "doubleSided": true,
      "name": "yButton1",
      "pbrMetallicRoughness": {
        "baseColorFactor": [
          0.0,
          1.0,
          0.0,
          1.0
        ],
        "metallicFactor": 0.0,
        "roughnessFactor": 0.6
      }
    },
    {
      "doubleSided": true,
      "name": "aButton1",
      "pbrMetallicRoughness": {
        "baseColorFactor": [
          1.0,
          0.0,
          0.0,
          1.0
        ],
        "metallicFactor": 0.0,
        "roughnessFactor": 0.6
      }
    },
    {
      "doubleSided": true,
      "name": "bButton1",
      "pbrMetallicRoughness": {
        "baseColorFactor": [
          1.0,
          1.0,
          0.0,
          1.0
        ],
        "metallicFactor": 0.0,
        "roughnessFactor": 0.6
      }
    },
    {
      "doubleSided": true,
      "name": "xButton1",
      "pbrMetallicRoughness": {
        "baseColorFactor": [
          0.0,
          0.0,
          1.0,
          1.0
        ],
        "metallicFactor": 0.0,
        "roughnessFactor": 0.6
      }
    }
  ],
  "meshes": [
    {
      "name": "pCylinder3_blinn1_0",
      "primitives": [
        {
          "attributes": {
            "NORMAL": 1,
            "POSITION": 0,
            "TEXCOORD_0": 2
          },
          "indices": 3,
          "material": 0,
          "mode": 4
        }
      ]
    },
    {
      "name": "pCylinder3_blinn3_0",
      "primitives": [
        {
          "attributes": {
            "NORMAL": 5,
            "POSITION": 4,
            "TEXCOORD_0": 6
          },
          "indices": 7,
          "material": 1,
          "mode": 4
        }
      ]
    },
    {
      "name": "pCylinder3_blinn2_0",
      "primitives": [
        {
          "attributes": {
            "NORMAL": 9,
            "POSITION": 8,
            "TEXCOORD_0": 10
          },
          "indices": 11,
          "material": 2,
          "mode": 4
        }
      ]
    },
    {
      "name": "buttonPad1_blinn1_0",
      "primitives": [
        {
          "attributes": {
            "NORMAL": 13,
            "POSITION": 12,
            "TEXCOORD_0": 14
          },
          "indices": 15,
          "material": 0,
          "mode": 4
        }
      ]
    },
    {
      "name": "buttonPad2_blinn1_0",
      "primitives": [
        {
          "attributes": {
            "NORMAL": 17,
            "POSITION": 16,
            "TEXCOORD_0": 18
          },
          "indices": 19,
          "material": 0,
          "mode": 4
        }
      ]
    },
    {
      "name": "yButton_yButton1_0",
      "primitives": [
        {
          "attributes": {
            "NORMAL": 21,
            "POSITION": 20,
            "TEXCOORD_0": 22
          },
          "indices": 23,
          "material": 3,
          "mode": 4
        }
      ]
    },
    {
      "name": "aButton_aButton1_0",
      "primitives": [
        {
          "attributes": {
            "NORMAL": 25,
            "POSITION": 24,
            "TEXCOORD_0": 26
          },
          "indices": 27,
          "material": 4,
          "mode": 4
        }
      ]
    },
    {
      "name": "bButton_bButton1_0",
      "primitives": [
        {
          "attributes": {
            "NORMAL": 29,
            "POSITION": 28,
            "TEXCOORD_0": 30
          },
          "indices": 31,
          "material": 5,
          "mode": 4
        }
      ]
    },
    {
      "name": "xButton_xButton1_0",
      "primitives": [
        {
          "attributes": {
            "NORMAL": 33,
            "POSITION": 32,
            "TEXCOORD_0": 34
          },
          "indices": 35,
          "material": 6,
          "mode": 4
        }
      ]
    }
  ],
  "nodes": [
    {
      "children": [
        1
      ],
      "matrix": [
        1.0,
        0.0,
        0.0,
        0.0,
        0.0,
        2.220446049250313e-16,
        -1.0,
        0.0,
        0.0,
        1.0,
        2.220446049250313e-16,
        0.0,
        0.0,
        0.0,
        0.0,
        1.0
      ],
      "name": "Sketchfab_model"
    },
    {
      "children": [
        2
      ],
      "matrix": [
        1.0,
        0.0,
        0.0,
        0.0,
        0.0,
        0.0,
        1.0,
        0.0,
        0.0,
        -1.0,
        0.0,
        0.0,
        0.0,
        0.0,
        0.0,
        1.0
      ],
      "name": "0a8c392817104b2ea96071d7125045e1.fbx"
    },
    {
      "children": [
        3,
        7,
        9,
        11,
        13,
        15,
        17
      ],
      "name": "RootNode"
    },
    {
      "children": [
        4,
        5,
        6
      ],
      "name": "pCylinder3"
    },
    {
      "mesh": 0,
      "name": "pCylinder3_blinn1_0"
    },
    {
      "mesh": 1,
      "name": "pCylinder3_blinn3_0"
    },
    {
      "mesh": 2,
      "name": "pCylinder3_blinn2_0"
    },
    {
      "children": [
        8
      ],
      "matrix": [
        0.7323485447613463,
        0.5137505591695041,
        0.0,
        0.0,
        -0.5137505591695041,
        0.7323485447613463,
        0.0,
        0.0,
        0.0,
        0.0,
        0.10295367240905762,
        0.0,
        4.846373081207275,
        -0.10042350739240646,
        15.806891441345215,
        1.0
      ],
      "name": "buttonPad1"
    },
    {
      "mesh": 3,
      "name": "buttonPad1_blinn1_0"
    },
    {
      "children": [
        10
      ],
      "matrix": [
        0.7323485447613463,
        0.5137505591695041,
        0.0,
        0.0,
        -0.5137505591695041,
        0.7323485447613463,
        0.0,
        0.0,
        0.0,
        0.0,
        0.10295367240905762,
        0.0,
        6.962562561035156,
        -1.8431679010391235,
        15.806891441345215,
        1.0
      ],
      "name": "buttonPad2"
    },
    {
      "mesh": 4,
      "name": "buttonPad2_blinn1_0"
    },
    {
      "children": [
        12
      ],
      "matrix": [
        0.8681141138076782,
        0.0,
        0.0,
        0.0,
        0.0,
        5.137664444936668e-17,
        0.23137983679771423,
        0.0,
        0.0,
        -0.8681141138076782,
        1.9276005543026958e-16,
        0.0,
        4.343961715698242,
        6.5753350257873535,
        15.33186149597168,
        1.0
      ],
      "name": "yButton"
    },
    {
      "mesh": 5,
      "name": "yButton_yButton1_0"
    },
    {
      "children": [
        14
      ],
      "matrix": [
        0.8681141138076782,
        0.0,
        0.0,
        0.0,
        0.0,
        5.137664444936668e-17,
        0.23137983679771423,
        0.0,
        0.0,
        -0.8681141138076782,
        1.9276005543026958e-16,
        0.0,
        8.778193473815918,
        6.506601333618164,
        15.33186149597168,
        1.0
      ],
      "name": "aButton"
    },
    {
      "mesh": 6,
      "name": "aButton_aButton1_0"
    },
    {
      "children": [
        16
      ],
      "matrix": [
        0.8681141138076782,
        0.0,
        0.0,
        0.0,
        0.0,
        5.137664444936668e-17,
        0.23137983679771423,
        0.0,
        0.0,
        -0.8681141138076782,
        1.9276005543026958e-16,
        0.0,
        6.5501556396484375,
        4.871572971343994,
        15.33186149597168,
        1.0
      ],
      "name": "bButton"
    },
    {
      "mesh": 7,
      "name": "bButton_bButton1_0"
    },
    {
      "children": [
        18
      ],
      "matrix": [
        0.8681141138076782,
        0.0,
        0.0,
        0.0,
        0.0,
        5.137664444936668e-17,
        0.23137983679771423,
        0.0,
        0.0,
        -0.8681141138076782,
        1.9276005543026958e-16,
        0.0,
        6.5501556396484375,
        8.1757230758667,
        15.33186149597168,
        1.0
      ],
      "name": "xButton"
    },
    {
      "mesh": 8,
      "name": "xButton_xButton1_0"
    }
  ],
  "scene": 0,
  "scenes": [
    {
      "name": "Sketchfab_Scene",
      "nodes": [
        0
      ]
    }
  ]
}
