{
  "accessors": [
    {
      "bufferView": 2,
      "componentType": 5126,
      "count": 161,
      "max": [
        0.6166595220565796,
        -0.771090030670166,
        0.6169130802154541
      ],
      "min": [
        -0.6171591281890869,
        -0.941366970539093,
        -0.6169130802154541
      ],
      "type": "VEC3"
    },
    {
      "bufferView": 2,
      "byteOffset": 1932,
      "componentType": 5126,
      "count": 161,
      "max": [
        0.5777861475944519,
        -0.8116139769554138,
        0.5795197486877441
      ],
      "min": [
        -0.5841943025588989,
        -0.9999943971633911,
        -0.5795193314552307
      ],
      "type": "VEC3"
    },
    {
      "bufferView": 3,
      "componentType": 5126,
      "count": 161,
      "max": [
        0.10317211598157883,
        0.5793547630310059,
        1.0,
        1.0
      ],
      "min": [
        -0.07320583611726761,
        -0.57941073179245,
        0.8147051334381104,
        1.0
      ],
      "type": "VEC4"
    },
    {
      "bufferView": 1,
      "componentType": 5126,
      "count": 161,
      "max": [
        0.944342851638794,
        0.9465585350990295
      ],
      "min": [
        0.06298089027404785,
        0.06502161920070648
      ],
      "type": "VEC2"
    },
    {
      "bufferView": 0,
      "componentType": 5125,
      "count": 912,
      "type": "SCALAR"
    },
    {
      "bufferView": 2,
      "byteOffset": 3864,
      "componentType": 5126,
      "count": 940,
      "max": [
        0.9762576818466187,
        0.9979985356330872,
        0.9762576818466187
      ],
      "min": [
        -0.9762576818466187,
        -0.7711865901947021,
        -0.9762575030326843
      ],
      "type": "VEC3"
    },
    {
      "bufferView": 2,
      "byteOffset": 15144,
      "componentType": 5126,
      "count": 940,
      "max": [
        1.0,
        1.0,
        1.0
      ],
      "min": [
        -1.0,
        -0.8109145760536194,
        -1.0
      ],
      "type": "VEC3"
    },
    {
      "bufferView": 3,
      "byteOffset": 2576,
      "componentType": 5126,
      "count": 940,
      "max": [
        0.9999511241912842,
        0.29145389795303345,
        0.9999858736991882,
        1.0
      ],
      "min": [
        -0.9999305009841919,
        -0.2911780774593353,
        -0.002627936191856861,
        1.0
      ],
      "type": "VEC4"
    },
    {
      "bufferView": 1,
      "byteOffset": 1288,
      "componentType": 5126,
      "count": 940,
      "max": [
        1.0004258155822754,
        0.9958793520927429
      ],
      "min": [
        0.03386060893535614,
        0.014607489109039307
      ],
      "type": "VEC2"
    },
    {
      "bufferView": 0,
      "byteOffset": 3648,
      "componentType": 5125,
      "count": 4896,
      "type": "SCALAR"
    }
  ],
  "asset": {
    "extras": {
      "author": "merrychuu (https://sketchfab.com/merrynguyen)",
      "license": "CC-BY-4.0 (http://creativecommons.org/licenses/by/4.0/)",
      "source": "https://sketchfab.com/3d-models/stylized-eye-4fed6c71faca4932926c70a9385a7cee",
      "title": "Stylized Eye"
    },
    "generator": "Sketchfab-12.65.0",
    "version": "2.0"
  },
  "bufferViews": [
    {
      "buffer": 0,
      "byteLength": 23232,
      "name": "floatBufferViews",
      "target": 34963
    },
    {
      "buffer": 0,
      "byteLength": 8808,
      "byteOffset": 23232,
      "byteStride": 8,
      "name": "floatBufferViews",
      "target": 34962
    },
    {
      "buffer": 0,
      "byteLength": 26424,
      "byteOffset": 32040,
      "byteStride": 12,
      "name": "floatBufferViews",
      "target": 34962
    },
    {
      "buffer": 0,
      "byteLength": 17616,
      "byteOffset": 58464,
      "byteStride": 16,
      "name": "floatBufferViews",
      "target": 34962
    }
  ],
  "buffers": [
    {
      "byteLength": 76080,
      "uri": "scene.bin"
    }
  ],
  "images": [
    {
      "uri": "textures/Pupil_baseColor.png"
    },
    {
      "uri": "textures/Pupil_metallicRoughness.png"
    },
    {
      "uri": "textures/Pupil_normal.png"
    },
    {
      "uri": "textures/material_baseColor.png"
    },
    {
      "uri": "textures/material_metallicRoughness.png"
    },
    {
      "uri": "textures/material_normal.png"
    }
  ],
  "materials": [
    {
      "doubleSided": true,
      "name": "Pupil",
      "normalTexture": {
        "index": 2
      },
      "pbrMetallicRoughness": {
        "baseColorTexture": {
          "index": 0
        },
        "metallicRoughnessTexture": {
          "index": 1
        }
      }
    },
    {
      "doubleSided": true,
      "name": "material",
      "normalTexture": {
        "index": 5
      },
      "pbrMetallicRoughness": {
        "baseColorTexture": {
          "index": 3
        },
        "metallicRoughnessTexture": {
          "index": 4
        }
      }
    }
  ],
  "meshes": [
    {
      "name": "polySurface1_Pupil_0",
      "primitives": [
        {
          "attributes": {
            "NORMAL": 1,
            "POSITION": 0,
            "TANGENT": 2,
            "TEXCOORD_0": 3
          },
          "indices": 4,
          "material": 0,
          "mode": 4
        }
      ]
    },
    {
      "name": "polySurface2_Eye_0",
      "primitives": [
        {
          "attributes": {
            "NORMAL": 6,
            "POSITION": 5,
            "TANGENT": 7,
            "TEXCOORD_0": 8
          },
          "indices": 9,
          "material": 1,
          "mode": 4
        }
      ]
    }
  ],
  "nodes": [
    {
      "children": [
        1
      ],
      "matrix": [
        1.0,
        0.0,
        0.0,
        0.0,
        0.0,
        2.220446049250313e-16,
        -1.0,
        0.0,
        0.0,
        1.0,
        2.220446049250313e-16,
        0.0,
        0.0,
        0.0,
        0.0,
        1.0
      ],
      "name": "Sketchfab_model"
    },
    {
      "children": [
        2
      ],
      "matrix": [
        1.0,
        0.0,
        0.0,
        0.0,
        0.0,
        0.0,
        1.0,
        0.0,
        0.0,
        -1.0,
        0.0,
        0.0,
        0.0,
        0.0,
        0.0,
        1.0
      ],
      "name": "e1d42412d001451184f814d6e5f76209.fbx"
    },
    {
      "children": [
        3
      ],
      "name": "RootNode"
    },
    {
      "children": [
        4,
        6
      ],
      "matrix": [
        0.06340145897331217,
        0.9979881036365391,
        0.0,
        0.0,
        -0.9979881036365391,
        0.06340145897331217,
        0.0,
        0.0,
        0.0,
        0.0,
        1.0,
        0.0,
        0.0,
        0.0,
        0.0,
        1.0
      ],
      "name": "pSphere1"
    },
    {
      "children": [
        5
      ],
      "name": "polySurface1"
    },
    {
      "mesh": 0,
      "name": "polySurface1_Pupil_0"
    },
    {
      "children": [
        7
      ],
      "name": "polySurface2"
    },
    {
      "mesh": 1,
      "name": "polySurface2_Eye_0"
    }
  ],
  "samplers": [
    {
      "magFilter": 9729,
      "minFilter": 9987,
      "wrapS": 10497,
      "wrapT": 10497
    }
  ],
  "scene": 0,
  "scenes": [
    {
      "name": "Sketchfab_Scene",
      "nodes": [
        0
      ]
    }
  ],
  "textures": [
    {
      "sampler": 0,
      "source": 0
    },
    {
      "sampler": 0,
      "source": 1
    },
    {
      "sampler": 0,
      "source": 2
    },
    {
      "sampler": 0,
      "source": 3
    },
    {
      "sampler": 0,
      "source": 4
    },
    {
      "sampler": 0,
      "source": 5
    }
  ]
}
