# Blender 3.6.1
# www.blender.org
mtllib Luna.mtl
o Esfera
v 0.000000 0.831470 -0.555570
v 0.000000 0.555570 -0.831470
v 0.000000 0.195090 -0.980785
v 0.000000 0.000000 -1.000000
v 0.038060 0.980785 -0.191342
v 0.074658 0.923880 -0.375330
v 0.108386 0.831470 -0.544895
v 0.137950 0.707107 -0.693520
v 0.162212 0.555570 -0.815493
v 0.180240 0.382683 -0.906127
v 0.191342 0.195090 -0.961940
v 0.195090 0.000000 -0.980785
v 0.074658 0.980785 -0.180240
v 0.146447 0.923880 -0.353553
v 0.212608 0.831470 -0.513280
v 0.270598 0.707107 -0.653281
v 0.318190 0.555570 -0.768178
v 0.353553 0.382683 -0.853553
v 0.375330 0.195090 -0.906127
v 0.382683 0.000000 -0.923879
v 0.108386 0.980785 -0.162212
v 0.212608 0.923880 -0.318190
v 0.308658 0.831470 -0.461940
v 0.392847 0.707107 -0.587938
v 0.461940 0.555570 -0.691342
v 0.513280 0.382683 -0.768178
v 0.544895 0.195090 -0.815493
v 0.555570 0.000000 -0.831469
v 0.137950 0.980785 -0.137950
v 0.270598 0.923880 -0.270598
v 0.392847 0.831470 -0.392847
v 0.500000 0.707107 -0.500000
v 0.587938 0.555570 -0.587938
v 0.653281 0.382683 -0.653281
v 0.693520 0.195090 -0.693520
v 0.707107 0.000000 -0.707107
v 0.162212 0.980785 -0.108386
v 0.318190 0.923880 -0.212608
v 0.461940 0.831470 -0.308658
v 0.587938 0.707107 -0.392847
v 0.691342 0.555570 -0.461940
v 0.768178 0.382683 -0.513280
v 0.815493 0.195090 -0.544895
v 0.831470 0.000000 -0.555570
v 0.000000 1.000000 0.000000
v 0.180240 0.980785 -0.074658
v 0.353553 0.923880 -0.146447
v 0.513280 0.831470 -0.212607
v 0.653281 0.707107 -0.270598
v 0.768178 0.555570 -0.318190
v 0.853553 0.382683 -0.353553
v 0.906127 0.195090 -0.375330
v 0.923879 0.000000 -0.382683
v 0.191342 0.980785 -0.038060
v 0.375330 0.923880 -0.074658
v 0.544895 0.831470 -0.108386
v 0.693520 0.707107 -0.137950
v 0.815493 0.555570 -0.162212
v 0.906127 0.382683 -0.180240
v 0.961940 0.195090 -0.191342
v 0.980785 0.000000 -0.195090
v 0.195090 0.980785 0.000000
v 0.382683 0.923880 0.000000
v 0.555570 0.831470 0.000000
v 0.707107 0.707107 -0.000000
v 0.831469 0.555570 0.000000
v 0.923879 0.382683 -0.000000
v 0.980785 0.195090 0.000000
v 1.000000 0.000000 0.000000
v -0.195090 0.980785 -0.000000
v -0.382683 0.923880 -0.000000
v -0.555570 0.831470 -0.000000
v -0.707107 0.707107 -0.000000
v -0.831469 0.555570 -0.000000
v -0.923879 0.382683 -0.000000
v -0.980785 0.195090 -0.000000
v -0.999999 0.000000 -0.000000
v -0.191342 0.980785 -0.038060
v -0.375330 0.923880 -0.074658
v -0.544895 0.831470 -0.108386
v -0.693520 0.707107 -0.137950
v -0.815493 0.555570 -0.162212
v -0.906127 0.382683 -0.180240
v -0.961939 0.195090 -0.191342
v -0.980784 0.000000 -0.195091
v -0.180240 0.980785 -0.074658
v -0.353553 0.923880 -0.146447
v -0.513279 0.831470 -0.212607
v -0.653281 0.707107 -0.270598
v -0.768177 0.555570 -0.318190
v -0.853553 0.382683 -0.353553
v -0.906127 0.195090 -0.375330
v -0.923878 0.000000 -0.382683
v -0.162212 0.980785 -0.108386
v -0.318189 0.923880 -0.212607
v -0.461939 0.831470 -0.308658
v -0.587938 0.707107 -0.392847
v -0.691341 0.555570 -0.461940
v -0.768177 0.382683 -0.513280
v -0.815493 0.195090 -0.544895
v -0.831468 0.000000 -0.555570
v -0.137950 0.980785 -0.137950
v -0.270598 0.923880 -0.270598
v -0.392847 0.831470 -0.392847
v -0.500000 0.707107 -0.500000
v -0.587937 0.555570 -0.587938
v -0.653281 0.382683 -0.653281
v -0.693519 0.195090 -0.693520
v -0.707106 0.000000 -0.707106
v -0.108386 0.980785 -0.162212
v -0.212607 0.923880 -0.318190
v -0.308658 0.831470 -0.461939
v -0.392847 0.707107 -0.587938
v -0.461939 0.555570 -0.691341
v -0.513280 0.382683 -0.768177
v -0.544895 0.195090 -0.815493
v -0.555569 0.000000 -0.831469
v -0.074658 0.980785 -0.180240
v -0.146446 0.923880 -0.353553
v -0.212607 0.831470 -0.513279
v -0.270598 0.707107 -0.653281
v -0.318189 0.555570 -0.768177
v -0.353553 0.382683 -0.853553
v -0.375330 0.195090 -0.906127
v -0.382683 0.000000 -0.923879
v -0.038060 0.980785 -0.191342
v -0.074658 0.923880 -0.375330
v -0.108386 0.831470 -0.544895
v -0.137950 0.707107 -0.693520
v -0.162211 0.555570 -0.815493
v -0.180240 0.382683 -0.906127
v -0.191341 0.195090 -0.961939
v -0.195090 0.000000 -0.980784
v 0.000000 0.980785 -0.195090
v 0.000000 0.923880 -0.382683
v 0.000000 0.707107 -0.707107
v 0.000000 0.382683 -0.923879
vn 0.0286 0.9565 -0.2902
vn 0.0464 0.8810 -0.4709
vn 0.0624 0.7715 -0.6332
vn 0.0759 0.6326 -0.7708
vn 0.0865 0.4696 -0.8786
vn 0.0938 0.2890 -0.9527
vn 0.0975 0.0975 -0.9904
vn 0.0097 0.9951 -0.0980
vn 0.2889 0.0976 -0.9524
vn 0.0286 0.9951 -0.0942
vn 0.0846 0.9565 -0.2790
vn 0.1374 0.8810 -0.4528
vn 0.1847 0.7715 -0.6088
vn 0.2248 0.6326 -0.7412
vn 0.2563 0.4696 -0.8448
vn 0.2779 0.2890 -0.9161
vn 0.3651 0.6326 -0.6831
vn 0.4162 0.4696 -0.7786
vn 0.4513 0.2890 -0.8443
vn 0.4691 0.0975 -0.8777
vn 0.0464 0.9951 -0.0869
vn 0.1374 0.9565 -0.2571
vn 0.2230 0.8810 -0.4173
vn 0.2999 0.7715 -0.5611
vn 0.0625 0.9951 -0.0761
vn 0.1850 0.9565 -0.2254
vn 0.3002 0.8810 -0.3658
vn 0.4036 0.7715 -0.4918
vn 0.4913 0.6326 -0.5987
vn 0.5601 0.4696 -0.6825
vn 0.6073 0.2890 -0.7400
vn 0.6314 0.0975 -0.7693
vn 0.5987 0.6326 -0.4913
vn 0.6825 0.4696 -0.5601
vn 0.7400 0.2890 -0.6073
vn 0.7693 0.0975 -0.6314
vn 0.0761 0.9951 -0.0625
vn 0.2254 0.9565 -0.1850
vn 0.3658 0.8810 -0.3002
vn 0.4918 0.7715 -0.4036
vn 0.2571 0.9565 -0.1374
vn 0.4173 0.8810 -0.2230
vn 0.5611 0.7715 -0.2999
vn 0.6831 0.6326 -0.3651
vn 0.7786 0.4696 -0.4162
vn 0.8443 0.2890 -0.4513
vn 0.8777 0.0975 -0.4691
vn 0.0869 0.9951 -0.0464
vn 0.8448 0.4696 -0.2563
vn 0.9161 0.2890 -0.2779
vn 0.9524 0.0975 -0.2889
vn 0.0942 0.9951 -0.0286
vn 0.2790 0.9565 -0.0846
vn 0.4528 0.8810 -0.1374
vn 0.6088 0.7715 -0.1847
vn 0.7412 0.6326 -0.2248
vn 0.4709 0.8810 -0.0464
vn 0.6332 0.7715 -0.0624
vn 0.7708 0.6326 -0.0759
vn 0.8786 0.4696 -0.0865
vn 0.9527 0.2890 -0.0938
vn 0.9904 0.0975 -0.0975
vn 0.0980 0.9951 -0.0097
vn 0.2902 0.9565 -0.0286
vn -0.6332 0.7715 -0.0624
vn -0.7708 0.6326 -0.0759
vn -0.8786 0.4696 -0.0865
vn -0.9527 0.2890 -0.0938
vn -0.9904 0.0975 -0.0976
vn -0.0980 0.9951 -0.0097
vn -0.2902 0.9565 -0.0286
vn -0.4709 0.8810 -0.0464
vn -0.9524 0.0975 -0.2889
vn -0.0942 0.9951 -0.0286
vn -0.2790 0.9565 -0.0846
vn -0.4528 0.8810 -0.1374
vn -0.6088 0.7715 -0.1847
vn -0.7412 0.6326 -0.2248
vn -0.8448 0.4696 -0.2563
vn -0.9161 0.2890 -0.2779
vn -0.6831 0.6326 -0.3651
vn -0.7786 0.4696 -0.4162
vn -0.8443 0.2890 -0.4513
vn -0.8777 0.0975 -0.4691
vn -0.0869 0.9951 -0.0464
vn -0.2571 0.9565 -0.1374
vn -0.4173 0.8810 -0.2231
vn -0.5611 0.7715 -0.2999
vn -0.0761 0.9951 -0.0625
vn -0.2254 0.9565 -0.1850
vn -0.3658 0.8810 -0.3002
vn -0.4918 0.7715 -0.4036
vn -0.5987 0.6326 -0.4913
vn -0.6825 0.4696 -0.5601
vn -0.7400 0.2890 -0.6073
vn -0.7693 0.0975 -0.6314
vn -0.4913 0.6326 -0.5987
vn -0.5601 0.4696 -0.6825
vn -0.6073 0.2890 -0.7400
vn -0.6314 0.0975 -0.7693
vn -0.0625 0.9951 -0.0761
vn -0.1850 0.9565 -0.2254
vn -0.3002 0.8810 -0.3658
vn -0.4036 0.7715 -0.4918
vn -0.1374 0.9565 -0.2571
vn -0.2230 0.8810 -0.4173
vn -0.2999 0.7715 -0.5611
vn -0.3651 0.6326 -0.6831
vn -0.4162 0.4696 -0.7786
vn -0.4513 0.2890 -0.8443
vn -0.4691 0.0975 -0.8777
vn -0.0464 0.9951 -0.0869
vn -0.2563 0.4696 -0.8448
vn -0.2779 0.2890 -0.9161
vn -0.2889 0.0975 -0.9524
vn -0.0286 0.9951 -0.0942
vn -0.0846 0.9565 -0.2790
vn -0.1374 0.8810 -0.4528
vn -0.1847 0.7715 -0.6088
vn -0.2248 0.6326 -0.7412
vn -0.0286 0.9565 -0.2902
vn -0.0464 0.8810 -0.4709
vn -0.0624 0.7715 -0.6332
vn -0.0759 0.6326 -0.7708
vn -0.0865 0.4696 -0.8786
vn -0.0938 0.2890 -0.9527
vn -0.0976 0.0975 -0.9904
vn -0.0097 0.9951 -0.0980
vt 0.750000 0.875000
vt 0.750000 0.937500
vt 0.718750 0.937500
vt 0.718750 0.875000
vt 0.750000 0.812500
vt 0.718750 0.812500
vt 0.750000 0.750000
vt 0.718750 0.750000
vt 0.750000 0.687500
vt 0.718750 0.687500
vt 0.750000 0.625000
vt 0.718750 0.625000
vt 0.750000 0.562500
vt 0.718750 0.562500
vt 0.750000 0.500000
vt 0.718750 0.500000
vt 0.734375 1.000000
vt 0.687500 0.562500
vt 0.687500 0.500000
vt 0.703125 1.000000
vt 0.687500 0.937500
vt 0.687500 0.875000
vt 0.687500 0.812500
vt 0.687500 0.750000
vt 0.687500 0.687500
vt 0.687500 0.625000
vt 0.656250 0.750000
vt 0.656250 0.687500
vt 0.656250 0.625000
vt 0.656250 0.562500
vt 0.656250 0.500000
vt 0.671875 1.000000
vt 0.656250 0.937500
vt 0.656250 0.875000
vt 0.656250 0.812500
vt 0.640625 1.000000
vt 0.625000 0.937500
vt 0.625000 0.875000
vt 0.625000 0.812500
vt 0.625000 0.750000
vt 0.625000 0.687500
vt 0.625000 0.625000
vt 0.625000 0.562500
vt 0.625000 0.500000
vt 0.593750 0.750000
vt 0.593750 0.687500
vt 0.593750 0.625000
vt 0.593750 0.562500
vt 0.593750 0.500000
vt 0.609375 1.000000
vt 0.593750 0.937500
vt 0.593750 0.875000
vt 0.593750 0.812500
vt 0.562500 0.937500
vt 0.562500 0.875000
vt 0.562500 0.812500
vt 0.562500 0.750000
vt 0.562500 0.687500
vt 0.562500 0.625000
vt 0.562500 0.562500
vt 0.562500 0.500000
vt 0.578125 1.000000
vt 0.531250 0.687500
vt 0.531250 0.625000
vt 0.531250 0.562500
vt 0.531250 0.500000
vt 0.546875 1.000000
vt 0.531250 0.937500
vt 0.531250 0.875000
vt 0.531250 0.812500
vt 0.531250 0.750000
vt 0.500000 0.875000
vt 0.500000 0.812500
vt 0.500000 0.750000
vt 0.500000 0.687500
vt 0.500000 0.625000
vt 0.500000 0.562500
vt 0.500000 0.500000
vt 0.515625 1.000000
vt 0.500000 0.937500
vt 1.000000 0.750000
vt 1.000000 0.812500
vt 0.968750 0.812500
vt 0.968750 0.750000
vt 1.000000 0.687500
vt 0.968750 0.687500
vt 1.000000 0.625000
vt 0.968750 0.625000
vt 1.000000 0.562500
vt 0.968750 0.562500
vt 1.000000 0.500000
vt 0.968750 0.500000
vt 1.000000 0.937500
vt 0.984375 1.000000
vt 0.968750 0.937500
vt 1.000000 0.875000
vt 0.968750 0.875000
vt 0.937500 0.562500
vt 0.937500 0.500000
vt 0.953125 1.000000
vt 0.937500 0.937500
vt 0.937500 0.875000
vt 0.937500 0.812500
vt 0.937500 0.750000
vt 0.937500 0.687500
vt 0.937500 0.625000
vt 0.906250 0.750000
vt 0.906250 0.687500
vt 0.906250 0.625000
vt 0.906250 0.562500
vt 0.906250 0.500000
vt 0.921875 1.000000
vt 0.906250 0.937500
vt 0.906250 0.875000
vt 0.906250 0.812500
vt 0.890625 1.000000
vt 0.875000 0.937500
vt 0.875000 0.875000
vt 0.875000 0.812500
vt 0.875000 0.750000
vt 0.875000 0.687500
vt 0.875000 0.625000
vt 0.875000 0.562500
vt 0.875000 0.500000
vt 0.843750 0.750000
vt 0.843750 0.687500
vt 0.843750 0.625000
vt 0.843750 0.562500
vt 0.843750 0.500000
vt 0.859375 1.000000
vt 0.843750 0.937500
vt 0.843750 0.875000
vt 0.843750 0.812500
vt 0.812500 0.937500
vt 0.812500 0.875000
vt 0.812500 0.812500
vt 0.812500 0.750000
vt 0.812500 0.687500
vt 0.812500 0.625000
vt 0.812500 0.562500
vt 0.812500 0.500000
vt 0.828125 1.000000
vt 0.781250 0.687500
vt 0.781250 0.625000
vt 0.781250 0.562500
vt 0.781250 0.500000
vt 0.796875 1.000000
vt 0.781250 0.937500
vt 0.781250 0.875000
vt 0.781250 0.812500
vt 0.781250 0.750000
vt 0.765625 1.000000
s 0
usemtl Material.001
f 135/1/1 134/2/1 5/3/1 6/4/1
f 1/5/2 135/1/2 6/4/2 7/6/2
f 136/7/3 1/5/3 7/6/3 8/8/3
f 2/9/4 136/7/4 8/8/4 9/10/4
f 137/11/5 2/9/5 9/10/5 10/12/5
f 3/13/6 137/11/6 10/12/6 11/14/6
f 4/15/7 3/13/7 11/14/7 12/16/7
f 134/2/8 45/17/8 5/3/8
f 12/16/9 11/14/9 19/18/9 20/19/9
f 5/3/10 45/20/10 13/21/10
f 6/4/11 5/3/11 13/21/11 14/22/11
f 7/6/12 6/4/12 14/22/12 15/23/12
f 8/8/13 7/6/13 15/23/13 16/24/13
f 9/10/14 8/8/14 16/24/14 17/25/14
f 10/12/15 9/10/15 17/25/15 18/26/15
f 11/14/16 10/12/16 18/26/16 19/18/16
f 17/25/17 16/24/17 24/27/17 25/28/17
f 18/26/18 17/25/18 25/28/18 26/29/18
f 19/18/19 18/26/19 26/29/19 27/30/19
f 20/19/20 19/18/20 27/30/20 28/31/20
f 13/21/21 45/32/21 21/33/21
f 14/22/22 13/21/22 21/33/22 22/34/22
f 15/23/23 14/22/23 22/34/23 23/35/23
f 16/24/24 15/23/24 23/35/24 24/27/24
f 21/33/25 45/36/25 29/37/25
f 22/34/26 21/33/26 29/37/26 30/38/26
f 23/35/27 22/34/27 30/38/27 31/39/27
f 24/27/28 23/35/28 31/39/28 32/40/28
f 25/28/29 24/27/29 32/40/29 33/41/29
f 26/29/30 25/28/30 33/41/30 34/42/30
f 27/30/31 26/29/31 34/42/31 35/43/31
f 28/31/32 27/30/32 35/43/32 36/44/32
f 33/41/33 32/40/33 40/45/33 41/46/33
f 34/42/34 33/41/34 41/46/34 42/47/34
f 35/43/35 34/42/35 42/47/35 43/48/35
f 36/44/36 35/43/36 43/48/36 44/49/36
f 29/37/37 45/50/37 37/51/37
f 30/38/38 29/37/38 37/51/38 38/52/38
f 31/39/39 30/38/39 38/52/39 39/53/39
f 32/40/40 31/39/40 39/53/40 40/45/40
f 38/52/41 37/51/41 46/54/41 47/55/41
f 39/53/42 38/52/42 47/55/42 48/56/42
f 40/45/43 39/53/43 48/56/43 49/57/43
f 41/46/44 40/45/44 49/57/44 50/58/44
f 42/47/45 41/46/45 50/58/45 51/59/45
f 43/48/46 42/47/46 51/59/46 52/60/46
f 44/49/47 43/48/47 52/60/47 53/61/47
f 37/51/48 45/62/48 46/54/48
f 51/59/49 50/58/49 58/63/49 59/64/49
f 52/60/50 51/59/50 59/64/50 60/65/50
f 53/61/51 52/60/51 60/65/51 61/66/51
f 46/54/52 45/67/52 54/68/52
f 47/55/53 46/54/53 54/68/53 55/69/53
f 48/56/54 47/55/54 55/69/54 56/70/54
f 49/57/55 48/56/55 56/70/55 57/71/55
f 50/58/56 49/57/56 57/71/56 58/63/56
f 56/70/57 55/69/57 63/72/57 64/73/57
f 57/71/58 56/70/58 64/73/58 65/74/58
f 58/63/59 57/71/59 65/74/59 66/75/59
f 59/64/60 58/63/60 66/75/60 67/76/60
f 60/65/61 59/64/61 67/76/61 68/77/61
f 61/66/62 60/65/62 68/77/62 69/78/62
f 54/68/63 45/79/63 62/80/63
f 55/69/64 54/68/64 62/80/64 63/72/64
f 73/81/65 72/82/65 80/83/65 81/84/65
f 74/85/66 73/81/66 81/84/66 82/86/66
f 75/87/67 74/85/67 82/86/67 83/88/67
f 76/89/68 75/87/68 83/88/68 84/90/68
f 77/91/69 76/89/69 84/90/69 85/92/69
f 70/93/70 45/94/70 78/95/70
f 71/96/71 70/93/71 78/95/71 79/97/71
f 72/82/72 71/96/72 79/97/72 80/83/72
f 85/92/73 84/90/73 92/98/73 93/99/73
f 78/95/74 45/100/74 86/101/74
f 79/97/75 78/95/75 86/101/75 87/102/75
f 80/83/76 79/97/76 87/102/76 88/103/76
f 81/84/77 80/83/77 88/103/77 89/104/77
f 82/86/78 81/84/78 89/104/78 90/105/78
f 83/88/79 82/86/79 90/105/79 91/106/79
f 84/90/80 83/88/80 91/106/80 92/98/80
f 90/105/81 89/104/81 97/107/81 98/108/81
f 91/106/82 90/105/82 98/108/82 99/109/82
f 92/98/83 91/106/83 99/109/83 100/110/83
f 93/99/84 92/98/84 100/110/84 101/111/84
f 86/101/85 45/112/85 94/113/85
f 87/102/86 86/101/86 94/113/86 95/114/86
f 88/103/87 87/102/87 95/114/87 96/115/87
f 89/104/88 88/103/88 96/115/88 97/107/88
f 94/113/89 45/116/89 102/117/89
f 95/114/90 94/113/90 102/117/90 103/118/90
f 96/115/91 95/114/91 103/118/91 104/119/91
f 97/107/92 96/115/92 104/119/92 105/120/92
f 98/108/93 97/107/93 105/120/93 106/121/93
f 99/109/94 98/108/94 106/121/94 107/122/94
f 100/110/95 99/109/95 107/122/95 108/123/95
f 101/111/96 100/110/96 108/123/96 109/124/96
f 106/121/97 105/120/97 113/125/97 114/126/97
f 107/122/98 106/121/98 114/126/98 115/127/98
f 108/123/99 107/122/99 115/127/99 116/128/99
f 109/124/100 108/123/100 116/128/100 117/129/100
f 102/117/101 45/130/101 110/131/101
f 103/118/102 102/117/102 110/131/102 111/132/102
f 104/119/103 103/118/103 111/132/103 112/133/103
f 105/120/104 104/119/104 112/133/104 113/125/104
f 111/132/105 110/131/105 118/134/105 119/135/105
f 112/133/106 111/132/106 119/135/106 120/136/106
f 113/125/107 112/133/107 120/136/107 121/137/107
f 114/126/108 113/125/108 121/137/108 122/138/108
f 115/127/109 114/126/109 122/138/109 123/139/109
f 116/128/110 115/127/110 123/139/110 124/140/110
f 117/129/111 116/128/111 124/140/111 125/141/111
f 110/131/112 45/142/112 118/134/112
f 123/139/113 122/138/113 130/143/113 131/144/113
f 124/140/114 123/139/114 131/144/114 132/145/114
f 125/141/115 124/140/115 132/145/115 133/146/115
f 118/134/116 45/147/116 126/148/116
f 119/135/117 118/134/117 126/148/117 127/149/117
f 120/136/118 119/135/118 127/149/118 128/150/118
f 121/137/119 120/136/119 128/150/119 129/151/119
f 122/138/120 121/137/120 129/151/120 130/143/120
f 127/149/121 126/148/121 134/2/121 135/1/121
f 128/150/122 127/149/122 135/1/122 1/5/122
f 129/151/123 128/150/123 1/5/123 136/7/123
f 130/143/124 129/151/124 136/7/124 2/9/124
f 131/144/125 130/143/125 2/9/125 137/11/125
f 132/145/126 131/144/126 137/11/126 3/13/126
f 133/146/127 132/145/127 3/13/127 4/15/127
f 126/148/128 45/152/128 134/2/128
