{
  "accessors": [
    {
      "bufferView": 2,
      "componentType": 5126,
      "count": 325,
      "max": [
        0.3103879690170288,
        0.028597278520464897,
        0.3281821012496948
      ],
      "min": [
        -0.3274803161621094,
        -0.028597261756658554,
        -0.31022101640701294
      ],
      "type": "VEC3"
    },
    {
      "bufferView": 2,
      "byteOffset": 3900,
      "componentType": 5126,
      "count": 325,
      "max": [
        0.9999159574508667,
        0.9999977350234985,
        0.998961329460144
      ],
      "min": [
        -0.9999123811721802,
        -0.9999977350234985,
        -0.9987680315971375
      ],
      "type": "VEC3"
    },
    {
      "bufferView": 1,
      "componentType": 5126,
      "count": 325,
      "max": [
        1.0,
        1.0
      ],
      "min": [
        0.0,
        0.0
      ],
      "type": "VEC2"
    },
    {
      "bufferView": 0,
      "componentType": 5125,
      "count": 1728,
      "type": "SCALAR"
    },
    {
      "bufferView": 2,
      "byteOffset": 7800,
      "componentType": 5126,
      "count": 169,
      "max": [
        0.3104124665260315,
        0.025169821456074715,
        0.051045894622802734
      ],
      "min": [
        -0.04976046085357666,
        -0.025169799104332924,
        -0.31011754274368286
      ],
      "type": "VEC3"
    },
    {
      "bufferView": 2,
      "byteOffset": 9828,
      "componentType": 5126,
      "count": 169,
      "max": [
        0.9973740577697754,
        0.9999510049819946,
        0.9973497986793518
      ],
      "min": [
        -0.9973830580711365,
        -0.9999510049819946,
        -0.9973385334014893
      ],
      "type": "VEC3"
    },
    {
      "bufferView": 1,
      "byteOffset": 2600,
      "componentType": 5126,
      "count": 169,
      "max": [
        1.0,
        1.0
      ],
      "min": [
        0.0,
        0.0
      ],
      "type": "VEC2"
    },
    {
      "bufferView": 0,
      "byteOffset": 6912,
      "componentType": 5125,
      "count": 864,
      "type": "SCALAR"
    },
    {
      "bufferView": 2,
      "byteOffset": 11856,
      "componentType": 5126,
      "count": 325,
      "max": [
        0.3104102611541748,
        0.027686797082424164,
        0.10617339611053467
      ],
      "min": [
        -0.1020820140838623,
        -0.02768678218126297,
        -0.31011760234832764
      ],
      "type": "VEC3"
    },
    {
      "bufferView": 2,
      "byteOffset": 15756,
      "componentType": 5126,
      "count": 325,
      "max": [
        0.9993524551391602,
        0.9999877214431763,
        0.999260425567627
      ],
      "min": [
        -0.9993579387664795,
        -0.9999877214431763,
        -0.9992533922195435
      ],
      "type": "VEC3"
    },
    {
      "bufferView": 1,
      "byteOffset": 3952,
      "componentType": 5126,
      "count": 325,
      "max": [
        1.0,
        1.0
      ],
      "min": [
        0.0,
        0.0
      ],
      "type": "VEC2"
    },
    {
      "bufferView": 0,
      "byteOffset": 10368,
      "componentType": 5125,
      "count": 1728,
      "type": "SCALAR"
    },
    {
      "bufferView": 2,
      "byteOffset": 19656,
      "componentType": 5126,
      "count": 325,
      "max": [
        0.31031566858291626,
        0.027686793357133865,
        0.1616140604019165
      ],
      "min": [
        -0.15777897834777832,
        -0.02768678218126297,
        -0.31011760234832764
      ],
      "type": "VEC3"
    },
    {
      "bufferView": 2,
      "byteOffset": 23556,
      "componentType": 5126,
      "count": 325,
      "max": [
        0.9996474981307983,
        0.9999926090240479,
        0.9996041059494019
      ],
      "min": [
        -0.9996547698974609,
        -0.9999926090240479,
        -0.9995937347412109
      ],
      "type": "VEC3"
    },
    {
      "bufferView": 1,
      "byteOffset": 6552,
      "componentType": 5126,
      "count": 325,
      "max": [
        1.0,
        1.0
      ],
      "min": [
        0.0,
        0.0
      ],
      "type": "VEC2"
    },
    {
      "bufferView": 0,
      "byteOffset": 17280,
      "componentType": 5125,
      "count": 1728,
      "type": "SCALAR"
    },
    {
      "bufferView": 2,
      "byteOffset": 27456,
      "componentType": 5126,
      "count": 325,
      "max": [
        0.3103557825088501,
        0.027686789631843567,
        0.2157963514328003
      ],
      "min": [
        -0.2132354974746704,
        -0.027686789631843567,
        -0.3101222515106201
      ],
      "type": "VEC3"
    },
    {
      "bufferView": 2,
      "byteOffset": 31356,
      "componentType": 5126,
      "count": 325,
      "max": [
        0.9996474981307983,
        0.9999926090240479,
        0.9996057748794556
      ],
      "min": [
        -0.9996539354324341,
        -0.9999926090240479,
        -0.999596357345581
      ],
      "type": "VEC3"
    },
    {
      "bufferView": 1,
      "byteOffset": 9152,
      "componentType": 5126,
      "count": 325,
      "max": [
        1.0,
        1.0
      ],
      "min": [
        0.0,
        0.0
      ],
      "type": "VEC2"
    },
    {
      "bufferView": 0,
      "byteOffset": 24192,
      "componentType": 5125,
      "count": 1728,
      "type": "SCALAR"
    },
    {
      "bufferView": 2,
      "byteOffset": 35256,
      "componentType": 5126,
      "count": 325,
      "max": [
        0.31037330627441406,
        0.028597285971045494,
        0.27097153663635254
      ],
      "min": [
        -0.270304799079895,
        -0.028597263619303703,
        -0.3102210760116577
      ],
      "type": "VEC3"
    },
    {
      "bufferView": 2,
      "byteOffset": 39156,
      "componentType": 5126,
      "count": 325,
      "max": [
        0.9996997117996216,
        0.9999934434890747,
        0.998811662197113
      ],
      "min": [
        -0.999704122543335,
        -0.9999934434890747,
        -0.9987004399299622
      ],
      "type": "VEC3"
    },
    {
      "bufferView": 1,
      "byteOffset": 11752,
      "componentType": 5126,
      "count": 325,
      "max": [
        1.0,
        1.0
      ],
      "min": [
        0.0,
        0.0
      ],
      "type": "VEC2"
    },
    {
      "bufferView": 0,
      "byteOffset": 31104,
      "componentType": 5125,
      "count": 1728,
      "type": "SCALAR"
    }
  ],
  "asset": {
    "extras": {
      "author": "Tiko (https://sketchfab.com/tikoavp)",
      "license": "CC-BY-4.0 (http://creativecommons.org/licenses/by/4.0/)",
      "source": "https://sketchfab.com/3d-models/rainbow-emoji-806d02f51df643658c8c241eb2fccc80",
      "title": "Rainbow Emoji"
    },
    "generator": "Sketchfab-14.64.0",
    "version": "2.0"
  },
  "bufferViews": [
    {
      "buffer": 0,
      "byteLength": 38016,
      "name": "floatBufferViews",
      "target": 34963
    },
    {
      "buffer": 0,
      "byteLength": 14352,
      "byteOffset": 38016,
      "byteStride": 8,
      "name": "floatBufferViews",
      "target": 34962
    },
    {
      "buffer": 0,
      "byteLength": 43056,
      "byteOffset": 52368,
      "byteStride": 12,
      "name": "floatBufferViews",
      "target": 34962
    }
  ],
  "buffers": [
    {
      "byteLength": 95424,
      "uri": "scene.bin"
    }
  ],
  "extensionsUsed": [
    "KHR_materials_specular"
  ],
  "materials": [
    {
      "doubleSided": true,
      "extensions": {
        "KHR_materials_specular": {
          "specularColorFactor": [
            1.0,
            1.0,
            1.0
          ],
          "specularFactor": 1.0
        }
      },
      "name": "material",
      "pbrMetallicRoughness": {
        "baseColorFactor": [
          0.603828,
          0.0423114,
          0.031896,
          1.0
        ],
        "metallicFactor": 0.0,
        "roughnessFactor": 0.0
      }
    },
    {
      "doubleSided": true,
      "extensions": {
        "KHR_materials_specular": {
          "specularColorFactor": [
            1.0,
            1.0,
            1.0
          ],
          "specularFactor": 1.0
        }
      },
      "name": "Purple",
      "pbrMetallicRoughness": {
        "baseColorFactor": [
          0.06158039999999995,
          0.006207889999999995,
          0.41093900000000005,
          1.0
        ],
        "metallicFactor": 0.0,
        "roughnessFactor": 0.0
      }
    },
    {
      "doubleSided": true,
      "extensions": {
        "KHR_materials_specular": {
          "specularColorFactor": [
            1.0,
            1.0,
            1.0
          ],
          "specularFactor": 1.0
        }
      },
      "name": "Blue",
      "pbrMetallicRoughness": {
        "baseColorFactor": [
          0.03605889999999999,
          0.17120300000000035,
          0.7742719999999998,
          1.0
        ],
        "metallicFactor": 0.0,
        "roughnessFactor": 0.0
      }
    },
    {
      "doubleSided": true,
      "extensions": {
        "KHR_materials_specular": {
          "specularColorFactor": [
            1.0,
            1.0,
            1.0
          ],
          "specularFactor": 1.0
        }
      },
      "name": "Green",
      "pbrMetallicRoughness": {
        "baseColorFactor": [
          0.160495,
          0.760547,
          0.0812513,
          1.0
        ],
        "metallicFactor": 0.0,
        "roughnessFactor": 0.0
      }
    },
    {
      "doubleSided": true,
      "extensions": {
        "KHR_materials_specular": {
          "specularColorFactor": [
            1.0,
            1.0,
            1.0
          ],
          "specularFactor": 1.0
        }
      },
      "name": "Yellow",
      "pbrMetallicRoughness": {
        "baseColorFactor": [
          0.9559739999999999,
          0.7678969999999999,
          0.0735006999999999,
          1.0
        ],
        "metallicFactor": 0.0,
        "roughnessFactor": 0.0
      }
    },
    {
      "doubleSided": true,
      "extensions": {
        "KHR_materials_specular": {
          "specularColorFactor": [
            1.0,
            1.0,
            1.0
          ],
          "specularFactor": 1.0
        }
      },
      "name": "Orange",
      "pbrMetallicRoughness": {
        "baseColorFactor": [
          1.0,
          0.319934,
          0.0154793,
          1.0
        ],
        "metallicFactor": 0.0,
        "roughnessFactor": 0.0
      }
    }
  ],
  "meshes": [
    {
      "name": "Rainbow_Red_0",
      "primitives": [
        {
          "attributes": {
            "NORMAL": 1,
            "POSITION": 0,
            "TEXCOORD_0": 2
          },
          "indices": 3,
          "material": 0,
          "mode": 4
        }
      ]
    },
    {
      "name": "Rainbow_Purple_0",
      "primitives": [
        {
          "attributes": {
            "NORMAL": 5,
            "POSITION": 4,
            "TEXCOORD_0": 6
          },
          "indices": 7,
          "material": 1,
          "mode": 4
        }
      ]
    },
    {
      "name": "Rainbow_Blue_0",
      "primitives": [
        {
          "attributes": {
            "NORMAL": 9,
            "POSITION": 8,
            "TEXCOORD_0": 10
          },
          "indices": 11,
          "material": 2,
          "mode": 4
        }
      ]
    },
    {
      "name": "Rainbow_Green_0",
      "primitives": [
        {
          "attributes": {
            "NORMAL": 13,
            "POSITION": 12,
            "TEXCOORD_0": 14
          },
          "indices": 15,
          "material": 3,
          "mode": 4
        }
      ]
    },
    {
      "name": "Rainbow_Yellow_0",
      "primitives": [
        {
          "attributes": {
            "NORMAL": 17,
            "POSITION": 16,
            "TEXCOORD_0": 18
          },
          "indices": 19,
          "material": 4,
          "mode": 4
        }
      ]
    },
    {
      "name": "Rainbow_Orange_0",
      "primitives": [
        {
          "attributes": {
            "NORMAL": 21,
            "POSITION": 20,
            "TEXCOORD_0": 22
          },
          "indices": 23,
          "material": 5,
          "mode": 4
        }
      ]
    }
  ],
  "nodes": [
    {
      "children": [
        1
      ],
      "matrix": [
        1.0,
        0.0,
        0.0,
        0.0,
        0.0,
        2.220446049250313e-16,
        -1.0,
        0.0,
        0.0,
        1.0,
        2.220446049250313e-16,
        0.0,
        0.0,
        0.0,
        0.0,
        1.0
      ],
      "name": "Sketchfab_model"
    },
    {
      "children": [
        2
      ],
      "matrix": [
        0.009999999776482582,
        0.0,
        0.0,
        0.0,
        0.0,
        0.0,
        0.009999999776482582,
        0.0,
        0.0,
        -0.009999999776482582,
        0.0,
        0.0,
        0.0,
        0.0,
        0.0,
        1.0
      ],
      "name": "0c7e504d831941fdad87ff64c518e7b0.fbx"
    },
    {
      "children": [
        3
      ],
      "name": "RootNode"
    },
    {
      "children": [
        4,
        5,
        6,
        7,
        8,
        9
      ],
      "matrix": [
        103.28852081298828,
        0.0,
        0.0,
        0.0,
        0.0,
        -1.682783598422937e-05,
        -103.28852081298692,
        0.0,
        0.0,
        103.28852081298692,
        -1.682783598422937e-05,
        0.0,
        0.0,
        0.0,
        0.0,
        1.0
      ],
      "name": "Rainbow"
    },
    {
      "mesh": 0,
      "name": "Rainbow_Red_0"
    },
    {
      "mesh": 1,
      "name": "Rainbow_Purple_0"
    },
    {
      "mesh": 2,
      "name": "Rainbow_Blue_0"
    },
    {
      "mesh": 3,
      "name": "Rainbow_Green_0"
    },
    {
      "mesh": 4,
      "name": "Rainbow_Yellow_0"
    },
    {
      "mesh": 5,
      "name": "Rainbow_Orange_0"
    }
  ],
  "scene": 0,
  "scenes": [
    {
      "name": "Sketchfab_Scene",
      "nodes": [
        0
      ]
    }
  ]
}
