{
  "accessors": [
    {
      "bufferView": 1,
      "componentType": 5126,
      "count": 3588,
      "max": [
        0.213160902261734,
        3.849426031112671,
        0.8075305223464966
      ],
      "min": [
        -0.2118390053510666,
        -5.380575180053711,
        -0.7674698233604431
      ],
      "type": "VEC3"
    },
    {
      "bufferView": 1,
      "byteOffset": 43056,
      "componentType": 5126,
      "count": 3588,
      "max": [
        1.0,
        1.0,
        1.0
      ],
      "min": [
        -1.0,
        -1.0,
        -1.0
      ],
      "type": "VEC3"
    },
    {
      "bufferView": 0,
      "componentType": 5125,
      "count": 4974,
      "type": "SCALAR"
    },
    {
      "bufferView": 1,
      "byteOffset": 86112,
      "componentType": 5126,
      "count": 3936,
      "max": [
        0.1631609946489334,
        3.596859931945801,
        0.6899669766426086
      ],
      "min": [
        -0.15683910250663757,
        -3.2980120182037354,
        -0.40464910864830017
      ],
      "type": "VEC3"
    },
    {
      "bufferView": 1,
      "byteOffset": 133344,
      "componentType": 5126,
      "count": 3936,
      "max": [
        1.0,
        1.0,
        1.0
      ],
      "min": [
        -1.0,
        -1.0,
        -1.0
      ],
      "type": "VEC3"
    },
    {
      "bufferView": 0,
      "byteOffset": 19896,
      "componentType": 5125,
      "count": 5904,
      "type": "SCALAR"
    },
    {
      "bufferView": 1,
      "byteOffset": 180576,
      "componentType": 5126,
      "count": 148,
      "max": [
        0.2031611055135727,
        3.849426031112671,
        0.09753072261810303
      ],
      "min": [
        -0.21683910489082336,
        -5.380575180053711,
        -0.762469470500946
      ],
      "type": "VEC3"
    },
    {
      "bufferView": 1,
      "byteOffset": 182352,
      "componentType": 5126,
      "count": 148,
      "max": [
        1.0,
        1.0,
        1.0
      ],
      "min": [
        -1.0,
        -1.0,
        -1.0
      ],
      "type": "VEC3"
    },
    {
      "bufferView": 0,
      "byteOffset": 43512,
      "componentType": 5125,
      "count": 222,
      "type": "SCALAR"
    },
    {
      "bufferView": 1,
      "byteOffset": 184128,
      "componentType": 5126,
      "count": 24,
      "max": [
        0.13803279399871826,
        -1.5631389617919922,
        0.3199666142463684
      ],
      "min": [
        0.12316100299358368,
        -1.5780110359191895,
        -0.3600336015224457
      ],
      "type": "VEC3"
    },
    {
      "bufferView": 1,
      "byteOffset": 184416,
      "componentType": 5126,
      "count": 24,
      "max": [
        1.0,
        1.0,
        1.0
      ],
      "min": [
        -1.0,
        -1.0,
        -1.0
      ],
      "type": "VEC3"
    },
    {
      "bufferView": 0,
      "byteOffset": 44400,
      "componentType": 5125,
      "count": 36,
      "type": "SCALAR"
    },
    {
      "bufferView": 1,
      "byteOffset": 184704,
      "componentType": 5126,
      "count": 24,
      "max": [
        1.1781610250473022,
        3.8244240283966064,
        -0.7374693751335144
      ],
      "min": [
        -1.1718389987945557,
        -4.875575065612793,
        -1.0574690103530884
      ],
      "type": "VEC3"
    },
    {
      "bufferView": 1,
      "byteOffset": 184992,
      "componentType": 5126,
      "count": 24,
      "max": [
        1.0,
        1.0,
        1.0
      ],
      "min": [
        -1.0,
        -1.0,
        -1.0
      ],
      "type": "VEC3"
    },
    {
      "bufferView": 0,
      "byteOffset": 44544,
      "componentType": 5125,
      "count": 36,
      "type": "SCALAR"
    },
    {
      "bufferView": 1,
      "byteOffset": 185280,
      "componentType": 5126,
      "count": 34,
      "max": [
        1.2431620359420776,
        -4.1905741691589355,
        -0.1424695998430252
      ],
      "min": [
        -1.3168400526046753,
        -5.550576210021973,
        -1.3124699592590332
      ],
      "type": "VEC3"
    },
    {
      "bufferView": 1,
      "byteOffset": 185688,
      "componentType": 5126,
      "count": 34,
      "max": [
        0.9959964752197266,
        0.9802848100662231,
        0.9928159713745117
      ],
      "min": [
        -0.9970544576644897,
        -0.9998078942298889,
        -0.9984501004219055
      ],
      "type": "VEC3"
    },
    {
      "bufferView": 0,
      "byteOffset": 44688,
      "componentType": 5125,
      "count": 36,
      "type": "SCALAR"
    }
  ],
  "asset": {
    "extras": {
      "author": "Steren (https://sketchfab.com/steren)",
      "license": "CC-BY-4.0 (http://creativecommons.org/licenses/by/4.0/)",
      "source": "https://sketchfab.com/3d-models/golden-gate-bridge-17432e0f095b46dd98034acbf93abe72",
      "title": "Golden Gate bridge"
    },
    "generator": "Sketchfab-12.67.0",
    "version": "2.0"
  },
  "bufferViews": [
    {
      "buffer": 0,
      "byteLength": 44832,
      "name": "floatBufferViews",
      "target": 34963
    },
    {
      "buffer": 0,
      "byteLength": 186096,
      "byteOffset": 44832,
      "byteStride": 12,
      "name": "floatBufferViews",
      "target": 34962
    }
  ],
  "buffers": [
    {
      "byteLength": 230928,
      "uri": "scene.bin"
    }
  ],
  "materials": [
    {
      "doubleSided": true,
      "name": "mat14",
      "pbrMetallicRoughness": {
        "baseColorFactor": [
          1.0,
          0.34,
          0.13,
          1.0
        ],
        "metallicFactor": 0.0
      }
    },
    {
      "doubleSided": true,
      "name": "mat15",
      "pbrMetallicRoughness": {
        "baseColorFactor": [
          0.81,
          0.85,
          0.86,
          1.0
        ],
        "metallicFactor": 0.0
      }
    },
    {
      "doubleSided": true,
      "name": "mat22",
      "pbrMetallicRoughness": {
        "baseColorFactor": [
          0.62,
          0.62,
          0.62,
          1.0
        ],
        "metallicFactor": 0.0
      }
    },
    {
      "doubleSided": true,
      "name": "mat23",
      "pbrMetallicRoughness": {
        "baseColorFactor": [
          0.1,
          0.1,
          0.1,
          1.0
        ],
        "metallicFactor": 0.0
      }
    },
    {
      "doubleSided": true,
      "name": "mat4",
      "pbrMetallicRoughness": {
        "baseColorFactor": [
          0.0,
          0.74,
          0.83,
          1.0
        ],
        "metallicFactor": 0.0
      }
    },
    {
      "doubleSided": true,
      "name": "mat9",
      "pbrMetallicRoughness": {
        "baseColorFactor": [
          0.55,
          0.76,
          0.29,
          1.0
        ],
        "metallicFactor": 0.0
      }
    }
  ],
  "meshes": [
    {
      "name": "Object_0",
      "primitives": [
        {
          "attributes": {
            "NORMAL": 1,
            "POSITION": 0
          },
          "indices": 2,
          "material": 0,
          "mode": 4
        }
      ]
    },
    {
      "name": "Object_1",
      "primitives": [
        {
          "attributes": {
            "NORMAL": 4,
            "POSITION": 3
          },
          "indices": 5,
          "material": 1,
          "mode": 4
        }
      ]
    },
    {
      "name": "Object_2",
      "primitives": [
        {
          "attributes": {
            "NORMAL": 7,
            "POSITION": 6
          },
          "indices": 8,
          "material": 2,
          "mode": 4
        }
      ]
    },
    {
      "name": "Object_3",
      "primitives": [
        {
          "attributes": {
            "NORMAL": 10,
            "POSITION": 9
          },
          "indices": 11,
          "material": 3,
          "mode": 4
        }
      ]
    },
    {
      "name": "Object_4",
      "primitives": [
        {
          "attributes": {
            "NORMAL": 13,
            "POSITION": 12
          },
          "indices": 14,
          "material": 4,
          "mode": 4
        }
      ]
    },
    {
      "name": "Object_5",
      "primitives": [
        {
          "attributes": {
            "NORMAL": 16,
            "POSITION": 15
          },
          "indices": 17,
          "material": 5,
          "mode": 4
        }
      ]
    }
  ],
  "nodes": [
    {
      "children": [
        1
      ],
      "matrix": [
        1.0,
        0.0,
        0.0,
        0.0,
        0.0,
        2.220446049250313e-16,
        -1.0,
        0.0,
        0.0,
        1.0,
        2.220446049250313e-16,
        0.0,
        0.0,
        0.0,
        0.0,
        1.0
      ],
      "name": "Sketchfab_model"
    },
    {
      "children": [
        2,
        3,
        4,
        5,
        6,
        7
      ],
      "name": "model.obj.cleaner.materialmerger.gles"
    },
    {
      "mesh": 0,
      "name": "Object_2"
    },
    {
      "mesh": 1,
      "name": "Object_3"
    },
    {
      "mesh": 2,
      "name": "Object_4"
    },
    {
      "mesh": 3,
      "name": "Object_5"
    },
    {
      "mesh": 4,
      "name": "Object_6"
    },
    {
      "mesh": 5,
      "name": "Object_7"
    }
  ],
  "scene": 0,
  "scenes": [
    {
      "name": "Sketchfab_Scene",
      "nodes": [
        0
      ]
    }
  ]
}
