{
  "accessors": [
    {
      "bufferView": 2,
      "componentType": 5126,
      "count": 6221,
      "max": [
        2.3316705226898193,
        6.9945549964904785,
        0.5084360241889954
      ],
      "min": [
        -1.8462814092636108,
        0.17342662811279297,
        -0.3980889916419983
      ],
      "type": "VEC3"
    },
    {
      "bufferView": 2,
      "byteOffset": 74652,
      "componentType": 5126,
      "count": 6221,
      "max": [
        0.9997388124465942,
        0.9995110630989075,
        0.9999940395355225
      ],
      "min": [
        -0.9997829794883728,
        -0.9992244839668274,
        -0.9999966025352478
      ],
      "type": "VEC3"
    },
    {
      "bufferView": 3,
      "componentType": 5126,
      "count": 6221,
      "max": [
        0.9994099140167236,
        0.8571988344192505,
        0.9999476075172424,
        1.0
      ],
      "min": [
        -0.5330806970596313,
        -0.9308046698570251,
        -0.9998766183853149,
        -1.0
      ],
      "type": "VEC4"
    },
    {
      "bufferView": 1,
      "componentType": 5126,
      "count": 6221,
      "max": [
        0.9998779296875,
        0.7484480738639832
      ],
      "min": [
        0.0001220703125,
        0.0001220703125
      ],
      "type": "VEC2"
    },
    {
      "bufferView": 0,
      "componentType": 5125,
      "count": 34848,
      "type": "SCALAR"
    }
  ],
  "asset": {
    "extras": {
      "author": "Duznot (https://sketchfab.com/duz_vr)",
      "license": "CC-BY-4.0 (http://creativecommons.org/licenses/by/4.0/)",
      "source": "https://sketchfab.com/3d-models/spank-the-monkey-445f855d674d447a8ce57fbfbaae7fed",
      "title": "Spank the Monkey"
    },
    "generator": "Sketchfab-14.81.0",
    "version": "2.0"
  },
  "bufferViews": [
    {
      "buffer": 0,
      "byteLength": 139392,
      "name": "floatBufferViews",
      "target": 34963
    },
    {
      "buffer": 0,
      "byteLength": 49768,
      "byteOffset": 139392,
      "byteStride": 8,
      "name": "floatBufferViews",
      "target": 34962
    },
    {
      "buffer": 0,
      "byteLength": 149304,
      "byteOffset": 189160,
      "byteStride": 12,
      "name": "floatBufferViews",
      "target": 34962
    },
    {
      "buffer": 0,
      "byteLength": 99536,
      "byteOffset": 338464,
      "byteStride": 16,
      "name": "floatBufferViews",
      "target": 34962
    }
  ],
  "buffers": [
    {
      "byteLength": 438000,
      "uri": "scene.bin"
    }
  ],
  "extensionsUsed": [
    "KHR_materials_specular"
  ],
  "images": [
    {
      "uri": "textures/Spank_baseColor.jpeg"
    },
    {
      "uri": "textures/Spank_metallicRoughness.png"
    },
    {
      "uri": "textures/Spank_normal.png"
    }
  ],
  "materials": [
    {
      "doubleSided": true,
      "extensions": {
        "KHR_materials_specular": {
          "specularColorFactor": [
            1.0,
            1.0,
            1.0
          ],
          "specularFactor": 0.7666055900816663
        }
      },
      "name": "Spank",
      "normalTexture": {
        "index": 2
      },
      "occlusionTexture": {
        "index": 1
      },
      "pbrMetallicRoughness": {
        "baseColorTexture": {
          "index": 0
        },
        "metallicRoughnessTexture": {
          "index": 1
        },
        "roughnessFactor": 0.8736470277111392
      }
    }
  ],
  "meshes": [
    {
      "name": "SpanktheMonkey_Spank_0",
      "primitives": [
        {
          "attributes": {
            "NORMAL": 1,
            "POSITION": 0,
            "TANGENT": 2,
            "TEXCOORD_0": 3
          },
          "indices": 4,
          "material": 0,
          "mode": 4
        }
      ]
    }
  ],
  "nodes": [
    {
      "children": [
        1
      ],
      "matrix": [
        1.0,
        0.0,
        0.0,
        0.0,
        0.0,
        2.220446049250313e-16,
        -1.0,
        0.0,
        0.0,
        1.0,
        2.220446049250313e-16,
        0.0,
        0.0,
        0.0,
        0.0,
        1.0
      ],
      "name": "Sketchfab_model"
    },
    {
      "children": [
        2
      ],
      "matrix": [
        0.009999999776482582,
        0.0,
        0.0,
        0.0,
        0.0,
        0.0,
        0.009999999776482582,
        0.0,
        0.0,
        -0.009999999776482582,
        0.0,
        0.0,
        0.0,
        0.0,
        0.0,
        1.0
      ],
      "name": "SpankMonkey.fbx"
    },
    {
      "children": [
        3
      ],
      "name": "RootNode"
    },
    {
      "children": [
        4
      ],
      "matrix": [
        100.0,
        0.0,
        0.0,
        0.0,
        0.0,
        99.99999999999866,
        1.6292067073209114e-05,
        0.0,
        0.0,
        -1.6292067073209114e-05,
        99.99999999999866,
        0.0,
        0.0,
        -16.15734100341797,
        0.0,
        1.0
      ],
      "name": "SpanktheMonkey"
    },
    {
      "mesh": 0,
      "name": "SpanktheMonkey_Spank_0"
    }
  ],
  "samplers": [
    {
      "magFilter": 9729,
      "minFilter": 9987,
      "wrapS": 10497,
      "wrapT": 10497
    }
  ],
  "scene": 0,
  "scenes": [
    {
      "name": "Sketchfab_Scene",
      "nodes": [
        0
      ]
    }
  ],
  "textures": [
    {
      "sampler": 0,
      "source": 0
    },
    {
      "sampler": 0,
      "source": 1
    },
    {
      "sampler": 0,
      "source": 2
    }
  ]
}
